<svg xmlns="http://www.w3.org/2000/svg" width="327.83" height="90.86" viewBox="0 0 327.83 90.86"><path d="M329.09,47.84c0,23.76-28.58,43-63.84,43s-63.83-19.26-63.83-43a30.29,30.29,0,0,1,3-13.12,13.15,13.15,0,0,0-.22,2.43c0,9.1,5.12,31.42,18.56,36.84,10.65,4.29,29-13.27,42.74-7.31,40.62,17.62,65.49-2.33,61.3-29.53-.06-.43-.15-.86-.25-1.28A30.18,30.18,0,0,1,329.09,47.84Z" transform="translate(-1.26)" fill="#fcdaa7"/><path d="M220.72,17q-.93.59-1.8,1.23l-.08.05.47-.54C219.77,17.51,220.24,17.26,220.72,17Z" transform="translate(-1.26)" fill="#fcdaa7"/><path d="M312.88,19.19l-.68-.5.57.34A.91.91,0,0,1,312.88,19.19Z" transform="translate(-1.26)" fill="#fcdaa7"/><path d="M312.77,19l-.57-.34.68.5A.91.91,0,0,0,312.77,19Zm-93.46-1.27-.39.49q.87-.64,1.8-1.23C220.24,17.26,219.77,17.51,219.31,17.76Z" transform="translate(-1.26)" fill="#fcdaa7"/><path d="M314.45,32.17c0-.12,0-.24,0-.36,0-5-6.32-12.56-15.28-19.08-1.47-1.08-3-2.12-4.59-3.12C293.67,9,292.75,8.48,291.8,8h0a15.15,15.15,0,0,0-2.39-2.12c10.82,2.84,19.23,7.53,23.37,13.2l-.57-.34.68.5A13.39,13.39,0,0,1,315.59,27,12.4,12.4,0,0,1,314.45,32.17Z" transform="translate(-1.26)" fill="#fcdaa7"/><path d="M312.26,35.7c-7.22,9-25.42,15.44-46.73,15.44-27.64,0-50-10.8-50-24.11a13.81,13.81,0,0,1,3.44-8.78q.87-.64,1.8-1.23c-.48.24-.95.49-1.41.74A34.55,34.55,0,0,1,231,9.59a17.05,17.05,0,0,0-2.89,3.27,13.33,13.33,0,0,0-.71,1.19,10,10,0,0,0-1.14,4.54c0,10.41,20.55,35.81,39.88,26.15C283,36.32,305.25,40.17,312.26,35.7Z" transform="translate(-1.26)" fill="#fcdaa7"/><path d="M257.71.11l.62,0h.08a1.09,1.09,0,0,1,.26,0C258.35,0,258,.06,257.71.11Z" transform="translate(-1.26)" fill="#fcdaa7"/><path d="M294.22,13.53c0,7.68-12.93,13.91-28.89,13.91s-28.88-6.23-28.88-13.91a7,7,0,0,1,.46-2.48,8.52,8.52,0,0,1,1.19-2.16,14,14,0,0,1,3-2.9h0c3.8-2.83,9.7-5,16.65-5.88h0l.62,0c-4.81.81-8.81,2.45-11.29,4.56h0A8.51,8.51,0,0,0,245,7h0a5.17,5.17,0,0,0-.68,2.42.81.81,0,0,0,0,.15c0,5.59,9.61,11.53,21.21,11.53s20.82-5.94,20.82-11.53a.81.81,0,0,0,0-.15,5.3,5.3,0,0,0-.66-2.38,8.42,8.42,0,0,0-2.16-2.54h0a15.44,15.44,0,0,0-2.42-1.62h0A29,29,0,0,0,272,0c7.22.82,13.39,2.94,17.38,5.83h0A15.15,15.15,0,0,1,291.79,8h0c.3.33.57.66.83,1a8.41,8.41,0,0,1,1.15,2.14A7,7,0,0,1,294.22,13.53Z" transform="translate(-1.26)" fill="#fcdaa7"/><path d="M48.14,41.22c0-2.75,2.59-4.59,6-5.18a2.2,2.2,0,0,1-.74-1.77,2.75,2.75,0,0,1,1.06-2,6.57,6.57,0,0,1-5-6.28c0-4,3.42-7.15,8.09-7.15a9.43,9.43,0,0,1,4.51,1.14l1-1.81a2.5,2.5,0,0,1,2.24-1.49,2.11,2.11,0,0,1,2,1.65l-3.21,3.34a6.41,6.41,0,0,1,1.64,4.2c0,4-3.37,6.87-8.16,6.87h-.71a1.09,1.09,0,0,0-.2.67c0,1.21,1.81,1.33,5.11,2.16,2.67.7,5.5,2,5.5,5.14,0,3.57-3.66,5.77-9.9,5.77S48.14,44.75,48.14,41.22Zm15.43-.43c0-1.49-1.77-2-3.85-2.55l-2-.48c-3.22.2-5.89,1.34-5.89,3.34,0,1.69,1.92,2.63,5.65,2.63S63.57,42.67,63.57,40.79ZM62,25.87a4.18,4.18,0,0,0-4.48-4.28,4.13,4.13,0,0,0-4.36,4.28,4.42,4.42,0,0,0,8.84,0Z" transform="translate(-1.26)" fill="#00704a"/><path d="M81,18.8c5.77,0,9.85,4.16,9.85,10a9.51,9.51,0,0,1-9.89,9.9c-5.85,0-9.89-4.13-9.89-10A9.51,9.51,0,0,1,81,18.8Zm0,3.18c-3.61,0-6.32,2.83-6.32,6.71s2.71,6.8,6.32,6.8,6.28-2.87,6.28-6.72S84.57,22,80.92,22Z" transform="translate(-1.26)" fill="#00704a"/><path d="M97,36.47V11.62a2,2,0,0,1,1.41-.44c1.22,0,2.48.63,2.48,3.34v22c0,1.41-.71,1.84-1.73,1.84h-.39C97.73,38.31,97,37.88,97,36.47Z" transform="translate(-1.26)" fill="#00704a"/><path d="M106.33,28.73c0-6,3.73-9.93,9-9.93a7.63,7.63,0,0,1,6.48,3.1V11.62a2,2,0,0,1,1.41-.44c1.22,0,2.47.63,2.47,3.34v22c0,1.41-.7,1.84-1.73,1.84h-.39c-1,0-1.73-.43-1.73-1.84V35a7.56,7.56,0,0,1-6.63,3.65C110.09,38.67,106.33,34.7,106.33,28.73Zm15.46-2.82A5.88,5.88,0,0,0,116,22c-3.53,0-5.89,2.67-5.89,6.71s2.44,6.72,5.82,6.72a5.68,5.68,0,0,0,5.88-5.54Z" transform="translate(-1.26)" fill="#00704a"/><path d="M141.31,18.8c5.46,0,9.07,3.85,9.07,9.5v.32c0,.82-.28,1.13-1.18,1.13H135.26a4.17,4.17,0,0,0,.08.71,6.14,6.14,0,0,0,6.36,5.15c3.3,0,5-1.46,5.93-3.15.08-.07,2,.28,2,1.93,0,.82-.71,1.88-2.08,2.75a11.21,11.21,0,0,1-6,1.53c-6,0-10-4-10-9.86C131.65,23.08,135.73,18.8,141.31,18.8Zm0,2.95a6,6,0,0,0-6,5.37h11.31C146.41,23.87,144.41,21.75,141.27,21.75Z" transform="translate(-1.26)" fill="#00704a"/><path d="M173.78,26.89v9.58c0,1.41-.75,1.84-1.73,1.84h-.43c-1,0-1.73-.43-1.73-1.84V27.36c0-3.18-1.61-5.14-4.36-5.14a5.72,5.72,0,0,0-5.3,3.29v11c0,1.41-.74,1.84-1.72,1.84h-.44c-1,0-1.72-.43-1.72-1.84v-17a1.92,1.92,0,0,1,1.41-.43c1.06,0,2.36.55,2.43,3.06a7.35,7.35,0,0,1,6.29-3.34C171.46,18.8,173.78,22.22,173.78,26.89Z" transform="translate(-1.26)" fill="#00704a"/><path d="M11.07,59.8a9.51,9.51,0,0,1,6.17,2A4.74,4.74,0,0,1,19.16,65c0,1.61-2.2,1.93-2.32,1.73a5.59,5.59,0,0,0-5.69-3.69C7.62,63.06,5,65.85,5,69.7s2.63,6.71,6.2,6.71a5.63,5.63,0,0,0,5.69-3.69c.12-.2,2.32.08,2.32,1.77a4.64,4.64,0,0,1-2,3.21,9.34,9.34,0,0,1-6.13,2,9.54,9.54,0,0,1-9.81-10A9.55,9.55,0,0,1,11.07,59.8Z" transform="translate(-1.26)" fill="#00704a"/><path d="M27.21,52a2.26,2.26,0,1,1,0,4.51,2.11,2.11,0,0,1-2.32-2.23A2.13,2.13,0,0,1,27.21,52Zm-2,10c0-1.41.74-1.88,1.76-1.88h.4c1,0,1.72.43,1.72,1.88V77.47c0,1.41-.7,1.84-1.72,1.84h-.4c-1,0-1.76-.43-1.76-1.84Z" transform="translate(-1.26)" fill="#00704a"/><path d="M53.83,67.89v9.58c0,1.41-.75,1.84-1.73,1.84h-.43c-1,0-1.73-.43-1.73-1.84V68.36c0-3.18-1.61-5.14-4.36-5.14a5.71,5.71,0,0,0-5.3,3.3v11c0,1.41-.74,1.84-1.72,1.84h-.44c-1,0-1.72-.43-1.72-1.84v-17a1.9,1.9,0,0,1,1.41-.43c1.06,0,2.36.55,2.43,3.06a7.35,7.35,0,0,1,6.29-3.34C51.51,59.8,53.83,63.22,53.83,67.89Z" transform="translate(-1.26)" fill="#00704a"/><path d="M78.21,67.89v9.58c0,1.41-.74,1.84-1.73,1.84h-.43c-1,0-1.73-.43-1.73-1.84V68.36c0-3.18-1.61-5.14-4.35-5.14a5.69,5.69,0,0,0-5.3,3.3v11c0,1.41-.75,1.84-1.73,1.84h-.43c-1,0-1.73-.43-1.73-1.84v-17a1.92,1.92,0,0,1,1.41-.43c1.06,0,2.36.55,2.44,3.06a7.32,7.32,0,0,1,6.28-3.34C75.9,59.8,78.21,63.22,78.21,67.89Z" transform="translate(-1.26)" fill="#00704a"/><path d="M95.68,67.81h.51v-.39c0-2.87-1.64-4.44-4.67-4.44A5.72,5.72,0,0,0,86.1,66.2s-2.39,0-2.39-1.88A3.44,3.44,0,0,1,85,62a10,10,0,0,1,6.8-2.16c5.34,0,8.24,2.75,8.24,7.54V78.92c0,.2-.71.43-1.41.43a2.1,2.1,0,0,1-2.24-1.72,5.83,5.83,0,0,1-.16-1.3,8.16,8.16,0,0,1-6.79,3.26c-4,0-6.44-2.16-6.44-5.38C83,69.85,87.16,68,95.68,67.81Zm.51,2.44-1.06,0c-5.49.2-8.32,1.22-8.32,3.77,0,1.69,1.34,2.75,3.57,2.75,3.38,0,5.81-2.12,5.81-5.1Z" transform="translate(-1.26)" fill="#00704a"/><path d="M110.21,77.47c0,1.41-.7,1.84-1.69,1.84h-.43c-1,0-1.72-.43-1.72-1.84V52.62a1.9,1.9,0,0,1,1.41-.43c1.18,0,2.47.62,2.47,3.33v7.7a7.68,7.68,0,0,1,6.6-3.42c5.06,0,8.83,3.89,8.83,9.9s-3.73,10-9,10a7.3,7.3,0,0,1-6.52-3.34ZM116.1,63A6,6,0,0,0,110.21,67v4.2a5.65,5.65,0,0,0,5.81,5.3c3.54,0,5.89-2.71,5.89-6.72S119.48,63,116.1,63Z" transform="translate(-1.26)" fill="#00704a"/><path d="M140.48,59.8a9.53,9.53,0,0,1,9.86,10,9.51,9.51,0,0,1-9.9,9.9c-5.84,0-9.89-4.13-9.89-10A9.51,9.51,0,0,1,140.48,59.8Zm0,3.18c-3.61,0-6.32,2.83-6.32,6.72s2.71,6.79,6.32,6.79,6.29-2.87,6.29-6.72S144.1,63,140.44,63Z" transform="translate(-1.26)" fill="#00704a"/><path d="M173.78,67.89v9.58c0,1.41-.75,1.84-1.73,1.84h-.43c-1,0-1.73-.43-1.73-1.84V68.36c0-3.18-1.61-5.14-4.36-5.14a5.71,5.71,0,0,0-5.3,3.3v11c0,1.41-.74,1.84-1.72,1.84h-.44c-1,0-1.72-.43-1.72-1.84v-17a1.92,1.92,0,0,1,1.41-.43c1.06,0,2.36.55,2.43,3.06a7.35,7.35,0,0,1,6.29-3.34C171.46,59.8,173.78,63.22,173.78,67.89Z" transform="translate(-1.26)" fill="#00704a"/></svg>