<svg xmlns="http://www.w3.org/2000/svg" width="980" height="583.69" viewBox="0 0 980 583.69"><rect x="648.5" width="331.5" height="583.69" fill="#c69c6d"/><rect x="799.79" y="128.58" width="36.78" height="455.11" fill="#fff"/><path d="M825.14,130.22c-58,10.35-105.37,46.38-117.94,96.07a103,103,0,0,0-2.48,37.18c15.8-24.71,42.22-57,75.15-90.48C795.18,157.41,810.49,143,825.14,130.22Z" fill="#fff"/><path d="M829.2,128.14c-52.28-13.24-107.54.85-140.59,40.76a116.4,116.4,0,0,0-19.06,32.56c24.25-16.14,60.67-35,103-52.36C792.21,141,811.35,134,829.2,128.14Z" fill="#fff"/><path d="M961.13,89.55c-43.82-13.43-93.73-2.86-127.62,31.27a119.19,119.19,0,0,0-20.76,28.1c23.18-13.43,57.29-28.83,96.36-42.77C927.28,99.67,944.84,94.1,961.13,89.55Z" fill="#fff"/><path d="M808.86,175.31c-5.82-61.3,8.4-109,39.76-118.45,7.88-2.37,16.31-2.13,25,.37-13.47,14.9-29.77,40.56-45.46,73.09C820.88,145.45,814.39,160.67,808.86,175.31Z" fill="#fff"/><path d="M808.07,128.57c53.47,11.3,97.57,48,110,97.72a112,112,0,0,1,3,37.08c-15-24.88-39.81-57.49-70.65-91.42C836.07,156.17,821.75,141.56,808.07,128.57Z" fill="#fff"/><path d="M819.06,131.36c45.4-7,93.06,10.67,121.23,49.28a117.21,117.21,0,0,1,16.13,30.76c-20.81-16.62-52.12-36.74-88.54-56.15C850.94,146.23,834.45,138.2,819.06,131.36Z" fill="#fff"/><path d="M677.33,96.66c42.87-19.34,94.36-15.16,132.11,15a117,117,0,0,1,23.86,25.74c-24.8-10.57-60.84-21.69-101.73-30.7C712.56,102.47,694.25,99.14,677.33,96.66Z" fill="#fff"/><path d="M96.07,245.13V228.79H115v16.12h44.53c20,0,25.09-8.06,25.09-16.54,0-9.76-6.74-18.46-25.9-33.53l-28.34-24.39,17.54-13.16,27,24.4c21.32,19.52,28.87,31.82,28.87,48.16,0,20.58-17,33.31-46.95,33.31H118.46C105.51,263.16,96.07,256.79,96.07,245.13Z" fill="#633c1c"/><path d="M223.43,295.83h14.3c39.13,0,60.44-12.09,65.3-32.67H271.46c-28.6,0-45.33-12.52-45.33-34,0-25.46,20.5-46.46,49.11-46.46,29.68,0,48,22.28,48,59.83v2.33h12.41v14l-5.4,4.24h-9.44c-7.83,32.25-35.62,50.92-83.11,50.92h-14.3Zm48-50.92h32.92v-6.57c0-22.7-11.87-37.34-30.76-37.34-18.35,0-28.6,10.6-28.6,26.09C245,239.4,253.38,244.91,271.46,244.91Z" fill="#633c1c"/><path d="M330.29,249.16l5.39-4.25h9.18c31.57,0,51.81-2.33,91.47-17.18l24.83-9.34v-.85l-39.94-7-55.85-10.82V218H346.48V201.63c0-11.67,9.44-18,22.39-18,4.05,0,8.37.42,20.24,2.76L455,199.72c19.7,4,32.38,5.31,42.09,5.31h4.32v18.24h-21l-36.7,17.4c-44.53,21-66.65,22.49-98.76,22.49H330.29Zm74.2,46.25c0-7.22,4.59-10.4,11.87-10.4h3c7,0,11.88,3.18,11.88,10.4s-4.86,10.39-11.88,10.39h-3C409.08,305.8,404.49,302.62,404.49,295.41Z" fill="#633c1c"/><path d="M509.19,102.34h9.71l.27-.85c-2.7-2.75-4.85-6.78-4.85-10.82,0-11,10.52-19.3,24.82-19.3,8.1,0,18.08,3.6,22.4,8.91l-10,9.55A18.78,18.78,0,0,0,539.14,85c-6.47,0-11.33,3-11.33,7,0,5.94,7.28,9.54,19.43,9.54h17.27v13.58H509.19ZM527,132.05h20V263.16H527Z" fill="#633c1c"/><path d="M0,550.43H10c39.4,0,48.84-19.31,48.84-41.37a117.49,117.49,0,0,0-3-25.68l-5.67-24,18.89-3,3.51,16.13a166.57,166.57,0,0,1,4.31,36.91c0,31-15.38,59.19-66.92,59.19H0Z" fill="#633c1c"/><path d="M96.87,550.43h14.3c39.13,0,60.45-12.1,65.31-32.68H144.9c-28.6,0-45.33-12.51-45.33-33.94,0-25.46,20.51-46.46,49.11-46.46,29.68,0,48,22.27,48,59.83v2.33h12.42v14l-5.4,4.24h-9.45c-7.82,32.25-35.61,50.92-83.11,50.92H96.87Zm48-50.92h32.92v-6.58c0-22.7-11.87-37.34-30.76-37.34-18.35,0-28.6,10.61-28.6,26.1C118.46,494,126.83,499.51,144.9,499.51Z" fill="#633c1c"/><path d="M203.73,503.75l5.4-4.24c11.87,0,17.54-.64,21.31-3.18a28.41,28.41,0,0,1-1.34-9.76c0-15.07,13-27.16,38.58-40.31l13.22-6.79H302l19.16,40.94c7,15.28,11.87,19.1,24.29,19.1h5.12v14l-5.39,4.24c-17,0-25.64-3-33.73-14.21l-1.62.42v13.79H277.67c-22.94,0-38.05-5.09-44.8-15.91h-1.08c-4.58,10.82-12.14,15.91-28.06,15.91Zm75.56-4.24H308.7A96.38,96.38,0,0,1,302.22,487l-15.11-32-10.25,4.88c-16.19,7.63-30,15.69-30,24.82C246.9,494.84,257.16,499.51,279.29,499.51Z" fill="#633c1c"/><path d="M345.13,503.75l5.39-4.24H360c15.38,0,22.93-5.94,22.93-18V448h18.89v33.53c0,12.3,7.29,18,22.94,18h9.44v14l-5.4,4.24c-25.09,0-39.39-6.78-43.71-20.79h-1.35c-4,15.49-14,20.79-38.58,20.79Zm15.65-91.65c0-7.21,4.58-10.4,11.87-10.4h3c7,0,11.87,3.19,11.87,10.4s-4.86,10.4-11.87,10.4h-3C365.36,422.5,360.78,419.31,360.78,412.1Zm34.8,0c0-7.21,4.59-10.4,11.88-10.4h3c7,0,11.87,3.19,11.87,10.4s-4.86,10.4-11.87,10.4h-3C400.17,422.5,395.58,419.31,395.58,412.1Z" fill="#633c1c"/><path d="M428.78,503.75l5.39-4.24H442c17,0,24.55-6.15,24.55-19.52V360.76h20V480c0,25.88-13.76,37.76-44.52,37.76H428.78Z" fill="#633c1c"/><path d="M527,360.76h20v157H527Z" fill="#633c1c"/></svg>