<svg xmlns="http://www.w3.org/2000/svg" xmlns:xlink="http://www.w3.org/1999/xlink" width="1071" height="637.36" viewBox="0 0 1071 637.36"><defs><linearGradient id="a" x1="1244.48" y1="615.89" x2="-51.52" y2="-66.39" gradientUnits="userSpaceOnUse"><stop offset="0" stop-color="#f7ac99"/><stop offset="1" stop-color="#d68996"/></linearGradient><linearGradient id="b" x1="1205.81" y1="689.35" x2="-90.19" y2="7.07" xlink:href="#a"/><linearGradient id="c" x1="1304.09" y1="502.67" x2="8.09" y2="-179.62" xlink:href="#a"/><linearGradient id="d" x1="1182.8" y1="733.07" x2="-113.2" y2="50.78" xlink:href="#a"/><linearGradient id="e" x1="1374.13" y1="369.63" x2="78.13" y2="-312.66" xlink:href="#a"/><linearGradient id="f" x1="1226.75" y1="649.58" x2="-69.25" y2="-32.71" xlink:href="#a"/><linearGradient id="g" x1="1023.91" y1="1034.87" x2="-272.09" y2="352.59" xlink:href="#a"/><linearGradient id="h" x1="984.19" y1="1110.32" x2="-311.81" y2="428.04" xlink:href="#a"/><linearGradient id="i" x1="1067.83" y1="951.43" x2="-228.17" y2="269.15" xlink:href="#a"/><linearGradient id="j" x1="1091.87" y1="905.77" x2="-204.13" y2="223.49" xlink:href="#a"/><linearGradient id="k" x1="1195.38" y1="709.16" x2="-100.62" y2="26.87" xlink:href="#a"/></defs><polygon points="289.09 0 348.27 0 348.27 155.54 96.36 155.54 96.36 96.36 192.73 96.36 192.73 59.18 96.36 59.18 96.36 0 251.91 0 251.91 96.36 289.09 96.36 289.09 0" fill="url(#a)"/><rect x="289.09" y="192.73" width="59.18" height="59.18" fill="url(#b)"/><path d="M770.91,96.36v59.18H915.45v37.19H733.73V96.36H578.18v96.37H541V96.36H385.45v59.18h96.37v37.19H385.45v59.18H974.64V96.36ZM637.36,192.73V155.54h37.19v37.19Z" fill="url(#c)"/><polygon points="59.18 192.73 251.91 192.73 251.91 251.91 0 251.91 0 0 59.18 0 59.18 192.73" fill="url(#d)"/><polygon points="1071 0 1071 251.91 1011.82 251.91 1011.82 59.18 385.45 59.18 385.45 0 1071 0" fill="url(#e)"/><polygon points="1071 289.09 1071 637.36 674.55 637.36 674.55 578.18 1011.82 578.18 1011.82 289.09 1071 289.09" fill="url(#f)"/><rect y="481.82" width="59.18" height="59.18" fill="url(#g)"/><rect y="578.18" width="59.18" height="59.18" fill="url(#h)"/><rect x="385.45" y="578.18" width="59.19" height="59.18" fill="url(#i)"/><polygon points="251.91 481.82 348.27 481.82 348.27 637.36 96.36 637.36 96.36 444.63 0 444.63 0 385.45 155.55 385.45 155.55 578.18 289.09 578.18 289.09 541 192.73 541 192.73 385.45 444.64 385.45 444.64 481.82 481.82 481.82 481.82 385.45 589.18 385.45 589.18 444.63 541 444.63 541 541 385.45 541 385.45 444.63 251.91 444.63 251.91 481.82" fill="url(#j)"/><polygon points="974.64 289.09 974.64 541 637.36 541 637.36 637.36 481.82 637.36 481.82 578.18 578.18 578.18 578.18 481.82 819.09 481.82 819.09 444.63 626.36 444.63 626.36 385.45 878.27 385.45 878.27 481.82 915.45 481.82 915.45 348.27 0 348.27 0 289.09 974.64 289.09" fill="url(#k)"/></svg>