<svg xmlns="http://www.w3.org/2000/svg" width="446.54" height="194.66" viewBox="0 0 446.54 194.66"><path d="M377.23,120.19a58.86,58.86,0,0,1-3.45,19.9,58.82,58.82,0,0,1-8.84-4.42l-1.36-1.84c.07-1.15.1-2.31.1-3.48A58.68,58.68,0,0,0,353.4,97.07c.15-.28.31-.56.47-.83a84.66,84.66,0,0,1,18.23-.15A58.89,58.89,0,0,1,377.23,120.19Z" fill="#636552"/><path d="M373.9,140.35l-.19-.08a57.9,57.9,0,0,1-8.88-4.43l-.05-.05-1.4-1.9v-.07c.07-1.11.1-2.28.1-3.47a58.48,58.48,0,0,0-10.24-33.17l-.07-.1.05-.11c.16-.28.31-.56.48-.83l.05-.09h.1a85.23,85.23,0,0,1,18.27-.15h.11l0,.11A59.32,59.32,0,0,1,374,140.15Zm-8.82-4.83a57.31,57.31,0,0,0,8.58,4.3A58.91,58.91,0,0,0,372,96.27a85.05,85.05,0,0,0-18,.16c-.12.21-.24.41-.36.63a58.79,58.79,0,0,1,10.25,33.29c0,1.18,0,2.32-.1,3.42Z" fill="#636552"/><path d="M414.35,112.76a83.64,83.64,0,0,1-22,31.42,57.79,57.79,0,0,1-10-1.41,58.76,58.76,0,0,0,14.46-38.7c0-.53,0-1,0-1.57A83.19,83.19,0,0,1,414.35,112.76Z" fill="#47453f"/><path d="M392.44,144.38h-.08a59.81,59.81,0,0,1-10-1.41l-.32-.08.22-.25a58.78,58.78,0,0,0,14.41-38.57c0-.53,0-1,0-1.57v-.31l.29.12a83.79,83.79,0,0,1,17.57,10.29l.12.1-.06.14a84.3,84.3,0,0,1-22,31.49Zm-9.69-1.73A59.32,59.32,0,0,0,392.3,144a83.89,83.89,0,0,0,21.81-31.15,83.6,83.6,0,0,0-17.08-10c0,.43,0,.85,0,1.27A59.16,59.16,0,0,1,382.75,142.65Z" fill="#47453f"/><path d="M418.77,97.6a1.27,1.27,0,0,0,0-.2A59.65,59.65,0,0,0,417.86,87c.7.82,1.38,1.65,2.05,2.5Q419.54,93.61,418.77,97.6Z" fill="#563f3e"/><path d="M419,97.64l-.4,0a1.21,1.21,0,0,0,0-.19A58.83,58.83,0,0,0,417.66,87l-.13-.73.48.56c.7.82,1.38,1.64,2.06,2.51l.05.06v.08C419.86,92.21,419.48,94.94,419,97.64Zm-.79-10a59.55,59.55,0,0,1,.77,7.8c.32-2,.57-4,.75-5.92C419.2,88.9,418.69,88.28,418.18,87.67Z" fill="#563f3e"/><path d="M420.26,81.85c0,2.57-.12,5.12-.35,7.63-.67-.85-1.35-1.68-2.05-2.5a58.37,58.37,0,0,0-7.33-19.67,54.84,54.84,0,0,1,5.92.91L420.23,80C420.25,80.59,420.26,81.22,420.26,81.85Z" fill="#3d4141"/><path d="M420.06,90l-.31-.39c-.68-.87-1.34-1.68-2-2.5l0,0v0a58.26,58.26,0,0,0-7.3-19.61l-.21-.34.4,0a56.59,56.59,0,0,1,5.94.91l.12,0L420.43,80q0,.95,0,1.89c0,2.53-.12,5.1-.35,7.65Zm-2-3.11c.58.68,1.14,1.37,1.7,2.07.2-2.37.3-4.76.3-7.11,0-.62,0-1.23,0-1.85L416.3,68.39c-1.75-.36-3.56-.64-5.4-.84A58.39,58.39,0,0,1,418.05,86.89Z" fill="#3d4141"/><path d="M276.42,78.54a58.81,58.81,0,0,0-16.9,35.67c-.22-.52-.44-1-.64-1.57h0a82.27,82.27,0,0,1-4.12-13.74,59.23,59.23,0,0,1,21.66-20.35Z" fill="#a97667"/><path d="M259.64,115l-.31-.72c-.22-.51-.43-1-.64-1.57v0a82.84,82.84,0,0,1-4.12-13.74v-.08l0-.07a59.56,59.56,0,0,1,21.73-20.41l1.21-.66-1,1a58.91,58.91,0,0,0-16.84,35.55Zm-.56-2.4c.1.27.21.54.32.81a59.32,59.32,0,0,1,15.91-34,58.77,58.77,0,0,0-16.35,14,59.43,59.43,0,0,0-4,5.54,82.59,82.59,0,0,0,4.09,13.64Z" fill="#a97667"/><polygon points="258.88 112.63 262.2 114.02 260.73 115.59 258.03 114.42 258.88 112.63" fill="#453c3b"/><path d="M260.78,115.83l-3-1.31,1-2.15,3.76,1.58Zm-2.48-1.51,2.38,1,1.17-1.26-2.88-1.2Z" fill="#453c3b"/><path d="M428.91,178.76a83.3,83.3,0,0,0,8.9-37.57c0-.21,0-.43,0-.64a83.1,83.1,0,0,1,8.53,26A58.66,58.66,0,0,1,428.91,178.76Z" fill="#59473d"/><path d="M428.47,179.18l.26-.51a82.52,82.52,0,0,0,8.88-37.48c0-.21,0-.43,0-.64l0-.86.4.77a83,83,0,0,1,8.55,26v.1l-.07.07A58.37,58.37,0,0,1,429,178.94Zm9.54-37.8a82.8,82.8,0,0,1-8.67,37,58.19,58.19,0,0,0,16.77-11.9A82.58,82.58,0,0,0,438,141.38Z" fill="#59473d"/><path d="M437.81,141.19a83.3,83.3,0,0,1-8.9,37.57,58.33,58.33,0,0,1-24.36,5.3c-.67,0-1.33,0-2,0l-6.93-6.93-4.88-6.58a83.92,83.92,0,0,0,25.72-30,58.73,58.73,0,0,0,15.83-9,83.82,83.82,0,0,1,5.49,9.05C437.81,140.76,437.81,141,437.81,141.19Z" fill="#855f4b"/><path d="M404.55,184.26c-.72,0-1.37,0-2,0h-.07l-7-7-5-6.77.17-.12a84.1,84.1,0,0,0,25.66-30l0-.07.07,0a58.11,58.11,0,0,0,15.77-8.94l.17-.14.12.18a82.4,82.4,0,0,1,5.51,9.07l0,.08c0,.22,0,.43,0,.65a82.88,82.88,0,0,1-8.92,37.66l0,.06-.06,0A58.13,58.13,0,0,1,404.55,184.26Zm-1.89-.44c.58,0,1.2,0,1.89,0a57.83,57.83,0,0,0,24.21-5.25,82.53,82.53,0,0,0,8.85-37.42v-.59a83.71,83.71,0,0,0-5.35-8.81,58.84,58.84,0,0,1-15.63,8.85A84.42,84.42,0,0,1,391,170.55L395.8,177Z" fill="#855f4b"/><path d="M437.8,140.55a83.82,83.82,0,0,0-5.49-9.05c1.21-1,2.39-2,3.52-3l1.63,5.08h0C437.67,135.85,437.79,138.19,437.8,140.55Z" fill="#54423d"/><path d="M438,141.38l-.38-.74a82.52,82.52,0,0,0-5.49-9l-.11-.16.15-.11c1.22-1,2.4-2,3.51-3l.23-.21,1.74,5.44c.21,2.29.33,4.65.34,7Zm-5.43-9.84a81.91,81.91,0,0,1,5,8.19c0-2.08-.14-4.15-.33-6.17l-1.52-4.74C434.73,129.76,433.67,130.67,432.58,131.54Z" fill="#54423d"/><path d="M423.52,120.88a82.5,82.5,0,0,1-7,19.6,58.75,58.75,0,0,1-20.84,3.79h0a59,59,0,0,0,20.7-30A81.51,81.51,0,0,1,423.52,120.88Z" fill="#4c433f"/><path d="M395.64,144.47h-.59l.44-.36a59.16,59.16,0,0,0,20.63-29.86l.09-.28.23.18a84.35,84.35,0,0,1,7.22,6.59l.08.07,0,.11a82.39,82.39,0,0,1-7,19.65l0,.07-.08,0A58.89,58.89,0,0,1,395.64,144.47Zm20.78-29.82a59.63,59.63,0,0,1-20.22,29.42,58.52,58.52,0,0,0,20.14-3.75,82.34,82.34,0,0,0,7-19.38A84.86,84.86,0,0,0,416.42,114.65Z" fill="#4c433f"/><path d="M432.31,131.5a58.73,58.73,0,0,1-15.83,9,82.5,82.5,0,0,0,7-19.6A84.43,84.43,0,0,1,432.31,131.5Z" fill="#4e433e"/><path d="M416.07,140.85l.24-.46a82.93,82.93,0,0,0,7-19.56l.08-.36.26.27a84.28,84.28,0,0,1,8.81,10.65l.11.15-.15.12a58.94,58.94,0,0,1-15.88,9Zm7.56-19.57a82.8,82.8,0,0,1-6.73,18.83A58.38,58.38,0,0,0,432,131.46,83.77,83.77,0,0,0,423.63,121.28Z" fill="#4e433e"/><path d="M416.45,68.22a54.84,54.84,0,0,0-5.92-.91A59,59,0,0,0,359.81,38.4c.41-.32.83-.63,1.25-.94l1.25-.88.64-.43.41-.27c.47-.31.95-.62,1.44-.92l1.19-.71,1.34-.76c.46-.24.91-.49,1.37-.72.17-.1.34-.18.52-.27l.47-.23c1.06-.52,2.14-1,3.24-1.47l1-.39.45-.18.93-.35.12,0,1-.37.44-.15.95-.3q.58-.19,1.17-.36l1.23-.35c1.26.65,2.5,1.33,3.71,2l.58.34.15.08.69.42,1.23.77.06,0,1.17.76,1.09.73,1.09.75L391,35l1.06.78.58.44c.28.21.55.42.83.65s.55.43.82.65q1.46,1.15,2.85,2.4c.44.39.89.79,1.32,1.19l.14.13a.08.08,0,0,1,0,0c.33.29.64.59,1,.89l.07.07c.35.33.68.66,1,1,.19.19.39.37.57.57l.28.28.05,0c.3.3.61.62.91.94l1,1.1.6.67c.93,1,1.83,2.09,2.7,3.17.27.33.54.66.79,1s.44.55.65.83l.41.53.76,1c.21.28.42.57.62.86l.74,1,.47.69c.15.23.31.46.46.7l.08.12c.26.39.51.78.76,1.18.1.14.18.29.28.43.3.49.6,1,.89,1.47Z" fill="#564c49"/><path d="M416.75,68.48l-.34-.07a58.12,58.12,0,0,0-5.9-.9h-.1l-.05-.09A59.1,59.1,0,0,0,359.81,38.6h-.59l.47-.36c.41-.32.83-.64,1.25-.94l1.26-.88.64-.44.41-.27,1.44-.92,1.19-.71,1.36-.76c.45-.25.91-.49,1.37-.73l.38-.2.14-.07.4-.2.07,0c1.07-.53,2.16-1,3.25-1.48l.15-.06.81-.33.46-.18c.31-.12.62-.24.93-.34l.09,0,1.07-.38.43-.15,1-.3q.58-.2,1.17-.36c.41-.13.82-.24,1.24-.35l.07,0,.07,0c1.28.66,2.54,1.35,3.72,2.05l.14.07.45.27.13.08.7.42c.42.25.83.51,1.23.77l0,.2.09-.18,1.19.77,1.09.74c.37.25.73.49,1.09.75l1.07.77,1.06.78.1.08.48.36.11.08.72.57.83.65c1,.76,1.88,1.55,2.85,2.41l0,0c.43.39.87.77,1.29,1.16l.15.14a.23.23,0,0,1,.06.07c.29.25.61.55.93.86l0,0c.39.36.72.69,1.06,1l0,0,.54.53.28.29,0,0c.3.31.61.62.91.94s.66.71,1,1.06l.64.71c1,1.09,1.88,2.16,2.71,3.18.27.33.53.66.79,1s.44.55.65.83l.41.54c.25.33.51.68.76,1l.63.86.73,1.06c.16.22.32.46.48.69l.46.7.09.14c.25.37.5.77.75,1.17l.21.32.07.11c.3.48.6,1,.89,1.47Zm-6.1-1.36c1.87.19,3.72.47,5.51.83l-2.57-8-.87-1.42-.07-.11-.2-.31c-.26-.41-.51-.8-.77-1.19l-.07-.11-.47-.71c-.15-.23-.31-.46-.47-.68s-.48-.71-.73-1.06l-.62-.86-.76-1-.41-.54c-.21-.28-.42-.55-.64-.82s-.52-.67-.79-1c-.82-1-1.73-2.08-2.7-3.16l-.64-.7c-.33-.36-.65-.71-1-1.06s-.6-.64-.91-.94l0,0-.28-.29-.53-.53,0,0c-.34-.34-.67-.66-1-1l0,0c-.34-.34-.66-.63-1-.92l-.05,0-.13-.12-1.28-1.16,0,0c-1-.86-1.9-1.64-2.84-2.4l-.82-.65-.73-.56-.1-.08-.48-.36-.1-.08-1.05-.78c-.35-.26-.71-.52-1.07-.76l-1.08-.75-1.09-.73-1.17-.76.05-.2-.09.18c-.43-.27-.83-.53-1.25-.78-.22-.14-.45-.28-.69-.41l-.13-.08L384,30.6l-.13-.08c-1.16-.68-2.38-1.35-3.63-2l-1.16.33c-.39.11-.77.23-1.16.36l-.95.3-.43.15-1,.36-.09,0c-.35.12-.65.24-1,.36l-.45.17-.81.33L373,31c-1.08.45-2.16.95-3.23,1.47l-.07,0-.39.19-.14.08-.37.19c-.47.24-.92.48-1.37.73s-.9.5-1.34.76l-1.19.7c-.48.3-1,.6-1.43.91l-.4.27c-.22.14-.43.29-.64.44-.42.29-.84.58-1.25.88l-.78.57a59.17,59.17,0,0,1,50.25,28.92Z" fill="#564c49"/><path d="M420.23,80l-3.78-11.75q.93.18,1.86.42c.47,1.06.93,2.14,1.35,3.22h0Q420.14,75.86,420.23,80Z" fill="#4e464c"/><path d="M420.46,81.33,416.16,68l.33.06c.64.13,1.26.27,1.87.43l.09,0,0,.09c.49,1.09.95,2.18,1.36,3.23v.07c.32,2.68.52,5.41.57,8.1Zm-3.71-12.85L420,78.56c-.09-2.22-.26-4.46-.53-6.67-.38-1-.82-2-1.29-3.08C417.7,68.69,417.23,68.58,416.75,68.48Z" fill="#4e464c"/><path d="M418.31,68.64q-.93-.24-1.86-.42l-2.67-8.31A83.82,83.82,0,0,1,418.31,68.64Z" fill="#4e4a49"/><path d="M418.66,68.94l-.4-.11c-.6-.15-1.22-.29-1.85-.41l-.11,0L413.05,58.3l.9,1.51a83.49,83.49,0,0,1,4.54,8.75Zm-2.05-.89q.67.14,1.35.3c-1-2.28-2.17-4.54-3.42-6.74Z" fill="#4e4a49"/><path d="M425.21,95.43l-5-15.46q-.09-4.11-.57-8.1A82.91,82.91,0,0,1,425.21,95.43Z" fill="#55423e"/><path d="M425.56,97.17,420,80c-.06-2.68-.25-5.4-.57-8.08l-.18-1.53.57,1.43a83.38,83.38,0,0,1,5.56,23.62Zm-5.13-17.24,4.4,13.67A82.86,82.86,0,0,0,420,73.37C420.25,75.55,420.38,77.76,420.43,79.93Z" fill="#55423e"/><path d="M418.78,97.4a1.27,1.27,0,0,1,0,.2,82.68,82.68,0,0,1-4.42,15.16,83.19,83.19,0,0,0-17.53-10.26A58.74,58.74,0,0,0,386,70a58.63,58.63,0,0,1,8.42-2.13A84,84,0,0,1,417.86,87,59.65,59.65,0,0,1,418.78,97.4Z" fill="#52423e"/><path d="M414.44,113.08l-.21-.16a83.27,83.27,0,0,0-17.49-10.24l-.12-.05v-.13a58.5,58.5,0,0,0-10.77-32.39l-.15-.22.25-.08a59.06,59.06,0,0,1,8.45-2.13l.07,0,.06,0A83.61,83.61,0,0,1,418,86.85l0,0V87A59.62,59.62,0,0,1,419,97.4a1.62,1.62,0,0,1,0,.22,82,82,0,0,1-4.44,15.22ZM397,102.36a84.25,84.25,0,0,1,17.24,10.08,81.19,81.19,0,0,0,4.31-14.87.86.86,0,0,0,0-.17,59.31,59.31,0,0,0-.91-10.33,83.43,83.43,0,0,0-23.27-19,61,61,0,0,0-8.07,2A58.82,58.82,0,0,1,397,102.36Z" fill="#52423e"/><path d="M417.86,87a84,84,0,0,0-23.42-19.11,58.67,58.67,0,0,1,16.09-.56A58.37,58.37,0,0,1,417.86,87Z" fill="#4f4245"/><path d="M418.19,87.67l-.48-.56a83.29,83.29,0,0,0-23.37-19.06l-.5-.28.56-.09a59.44,59.44,0,0,1,16.15-.57h.1l.05.08A58.75,58.75,0,0,1,418.06,87ZM395,68a83.67,83.67,0,0,1,22.5,18.31,58.13,58.13,0,0,0-7.12-18.79A59.11,59.11,0,0,0,395,68Z" fill="#4f4245"/><path d="M394.44,67.87A58.63,58.63,0,0,0,386,70a58.55,58.55,0,0,0-7.78-8.92A83.26,83.26,0,0,1,394.44,67.87Z" fill="#937a68"/><path d="M385.94,70.24l-.09-.13a59.18,59.18,0,0,0-7.74-8.89l-.63-.58.82.24a83.49,83.49,0,0,1,16.23,6.82l.5.27-.56.1a58.25,58.25,0,0,0-8.39,2.12ZM379,61.52a58.22,58.22,0,0,1,7.09,8.24,59.12,59.12,0,0,1,7.75-2A82.31,82.31,0,0,0,379,61.52Z" fill="#937a68"/><path d="M410.53,67.31a58.67,58.67,0,0,0-16.09.56,83.26,83.26,0,0,0-16.2-6.79h0a58.85,58.85,0,0,0-27.13-14.52,57.94,57.94,0,0,1,8.7-8.16A59,59,0,0,1,410.53,67.31Z" fill="#644b41"/><path d="M394.4,68.08l-.06,0a83.31,83.31,0,0,0-16.13-6.77h0l-.06-.06a58.7,58.7,0,0,0-27-14.46l-.32-.07.22-.26a58.25,58.25,0,0,1,8.73-8.19l.05,0h.07a59.15,59.15,0,0,1,50.89,29l.2.34-.39,0a59.43,59.43,0,0,0-16,.56ZM378.34,60.9a83.28,83.28,0,0,1,16.13,6.76,60.09,60.09,0,0,1,15.68-.59A59.09,59.09,0,0,0,359.88,38.6a57.69,57.69,0,0,0-8.4,7.85A59,59,0,0,1,378.34,60.9Z" fill="#644b41"/><path d="M396.84,104.07a58.76,58.76,0,0,1-14.46,38.7h0a57.07,57.07,0,0,1-8.59-2.68,59.15,59.15,0,0,0-1.68-44,82.85,82.85,0,0,1,24.72,6.41C396.84,103,396.84,103.54,396.84,104.07Z" fill="#504140"/><path d="M382.47,143h-.14a57.44,57.44,0,0,1-8.62-2.7l-.18-.07.06-.18a58.89,58.89,0,0,0-1.68-43.85l-.14-.32.35,0a83,83,0,0,1,24.78,6.42l.12,0v.13c0,.53,0,1.05,0,1.58a59.15,59.15,0,0,1-14.51,38.83ZM374,140a56.72,56.72,0,0,0,8.28,2.58,58.77,58.77,0,0,0,14.33-38.48c0-.48,0-1,0-1.44a82.65,82.65,0,0,0-24.2-6.31A59.31,59.31,0,0,1,374,140Z" fill="#504140"/><path d="M396.82,102.5a82.85,82.85,0,0,0-24.72-6.41,58.49,58.49,0,0,0-7.94-12.92A58.37,58.37,0,0,1,386,70,58.74,58.74,0,0,1,396.82,102.5Z" fill="#51574d"/><path d="M397,102.8l-.29-.12a82.76,82.76,0,0,0-24.66-6.39l-.12,0,0-.1A58.85,58.85,0,0,0,364,83.29l-.12-.14L364,83A59.09,59.09,0,0,1,386,69.81l.14,0,.09.12A58.91,58.91,0,0,1,397,102.49Zm-24.8-6.9a83.14,83.14,0,0,1,24.38,6.29,58.44,58.44,0,0,0-10.67-31.95,58.59,58.59,0,0,0-21.51,13A58.56,58.56,0,0,1,372.23,95.9Z" fill="#51574d"/><path d="M386,70a58.37,58.37,0,0,0-21.86,13.17,59,59,0,0,0-24.07-17.8,55.63,55.63,0,0,1,3.07-7.08h0a85.38,85.38,0,0,1,11-.72,83.42,83.42,0,0,1,24.05,3.51h0A58.55,58.55,0,0,1,386,70Z" fill="#a2756a"/><path d="M364.14,83.46l-.13-.17a58.94,58.94,0,0,0-24-17.73l-.18-.08.07-.18A56.58,56.58,0,0,1,343,58.2l0-.11h.12a84.81,84.81,0,0,1,11-.72,83.86,83.86,0,0,1,24.08,3.51h.05l.06,0a59,59,0,0,1,7.8,8.95l.15.22-.25.09A58.63,58.63,0,0,0,364.3,83.31Zm-23.8-18.2a59.29,59.29,0,0,1,23.84,17.61,59,59,0,0,1,21.52-13,58.3,58.3,0,0,0-7.56-8.64,83.31,83.31,0,0,0-23.95-3.49,84.81,84.81,0,0,0-10.91.71A57.56,57.56,0,0,0,340.34,65.26Z" fill="#a2756a"/><path d="M378.24,61.08a83.42,83.42,0,0,0-24.05-3.51,85.38,85.38,0,0,0-11,.72,58.92,58.92,0,0,1,7.95-11.73A58.85,58.85,0,0,1,378.24,61.08Z" fill="#4c433f"/><path d="M379,61.51l-.81-.24a84.1,84.1,0,0,0-35-2.78l-.38,0,.17-.34a59.07,59.07,0,0,1,8-11.77l.07-.09.12,0a59,59,0,0,1,27.22,14.56Zm-24.8-4.14a84.15,84.15,0,0,1,23.29,3.27,58.57,58.57,0,0,0-26.3-13.85A58.69,58.69,0,0,0,343.51,58,86.88,86.88,0,0,1,354.19,57.37Z" fill="#4c433f"/><path d="M332,45.36A58.92,58.92,0,0,0,313,61.42a58.61,58.61,0,0,0-21.55,6.16A58.88,58.88,0,0,1,332,45.36Z" fill="#855f4b"/><path d="M290.75,68.17l.56-.71a59.44,59.44,0,0,1,40.63-22.3l1-.1-.89.47a59.37,59.37,0,0,0-18.88,16l-.05.07H313a58.14,58.14,0,0,0-21.47,6.14ZM331,45.66A59.12,59.12,0,0,0,292.19,67a58.44,58.44,0,0,1,20.72-5.78A59.86,59.86,0,0,1,331,45.66Z" fill="#855f4b"/><path d="M372.1,96.09a84.66,84.66,0,0,0-18.23.15,58.84,58.84,0,0,1,10.29-13.07A58.49,58.49,0,0,1,372.1,96.09Z" fill="#7e796d"/><path d="M353.5,96.48l.2-.34A59.17,59.17,0,0,1,364,83l.16-.15.14.17a59.07,59.07,0,0,1,8,13l.14.31-.34,0a84.49,84.49,0,0,0-18.19.15Zm10.64-13A59,59,0,0,0,354.24,96a85.64,85.64,0,0,1,17.53-.14A58.43,58.43,0,0,0,364.14,83.46Z" fill="#7e796d"/><path d="M364.16,83.17a58.84,58.84,0,0,0-10.29,13.07c-.16.27-.32.55-.47.83-.16-.24-.32-.48-.49-.71a59.09,59.09,0,0,0-16.1-15.5,58.06,58.06,0,0,1,3.28-15.49A59,59,0,0,1,364.16,83.17Z" fill="#62463c"/><path d="M353.42,97.46l-.19-.28c-.15-.24-.32-.47-.48-.71A58.82,58.82,0,0,0,336.7,81l-.1-.07v-.12A58.53,58.53,0,0,1,339.9,65.3l.07-.19.19.07A59.43,59.43,0,0,1,364.32,83l.11.14-.13.13a58.7,58.7,0,0,0-10.26,13c-.16.27-.31.55-.46.82ZM337,80.75a59.19,59.19,0,0,1,16.06,15.49l.31.45.32-.55a58.69,58.69,0,0,1,10.19-13A59,59,0,0,0,340.2,65.63,58.64,58.64,0,0,0,337,80.75Z" fill="#62463c"/><path d="M313,61.42a58.44,58.44,0,0,0-6.22,10c-.7,0-1.41,0-2.12,0A59,59,0,0,0,287.05,74a59.3,59.3,0,0,1,4.42-6.45A58.61,58.61,0,0,1,313,61.42Z" fill="#454640"/><path d="M286.61,74.38l.27-.45a58.75,58.75,0,0,1,4.43-6.47l.07-.06A58.69,58.69,0,0,1,313,61.22l.45,0-.28.36A58.1,58.1,0,0,0,307,71.48l-.06.12h-.13c-.62,0-1.32,0-2.11,0a58.84,58.84,0,0,0-17.57,2.67Zm5-6.64a58.19,58.19,0,0,0-4.11,5.94,59.26,59.26,0,0,1,17.19-2.53c.74,0,1.4,0,2,0a58.14,58.14,0,0,1,5.9-9.53A58.09,58.09,0,0,0,291.6,67.74Z" fill="#454640"/><path d="M363.68,130.35c0,1.17,0,2.33-.1,3.48l-16-21.63a57.74,57.74,0,0,1,5.85-15.13A58.68,58.68,0,0,1,363.68,130.35Z" fill="#734844"/><path d="M363.75,134.39l-16.42-22.15,0-.09A58.49,58.49,0,0,1,353.22,97l.16-.28.18.27a58.82,58.82,0,0,1,10.32,33.39c0,1.2,0,2.37-.1,3.49Zm-16-22.24,15.65,21.11c0-.94.07-1.91.07-2.91a58.49,58.49,0,0,0-10.06-32.9A57.67,57.67,0,0,0,347.76,112.15Z" fill="#734844"/><path d="M352.91,96.36a81.94,81.94,0,0,0-14.52,3.2,58.51,58.51,0,0,1-1.75-14.29c0-1.48.05-3,.17-4.41A59.09,59.09,0,0,1,352.91,96.36Z" fill="#5a5050"/><path d="M338.24,99.82l-.05-.21a59.39,59.39,0,0,1-1.75-14.34c0-1.5.05-3,.17-4.43l0-.33.28.18a59.06,59.06,0,0,1,16.16,15.55l.19.27-.33,0a82,82,0,0,0-14.48,3.19ZM337,81.21c-.09,1.32-.14,2.69-.14,4.06a59,59,0,0,0,1.69,14,82.68,82.68,0,0,1,14-3.11A58.74,58.74,0,0,0,337,81.21Z" fill="#5a5050"/><path d="M353.4,97.07a57.74,57.74,0,0,0-5.85,15.13l-1.35-2.28-2.08,4.13a58.31,58.31,0,0,1-5.73-14.49,81.94,81.94,0,0,1,14.52-3.2C353.08,96.59,353.24,96.83,353.4,97.07Z" fill="#3d4244"/><path d="M344.13,114.47l-.18-.33a58.88,58.88,0,0,1-5.76-14.53l0-.18.18-.06a82.76,82.76,0,0,1,14.55-3.21l.12,0,.07.1.5.72.06.1-.06.11a58,58,0,0,0-5.83,15.07l-.11.49-1.42-2.39Zm-5.5-14.77a58.44,58.44,0,0,0,5.48,13.92l2.07-4.11,1.29,2.16a57.77,57.77,0,0,1,5.7-14.59l-.35-.51A82.51,82.51,0,0,0,338.63,99.7Z" fill="#3d4244"/><path d="M306.8,71.39c-.22.44-.44.9-.64,1.35h0a83.88,83.88,0,0,0-27.3,32.15c0-.27,0-.54,0-.82a58.68,58.68,0,0,1,8.21-30,59,59,0,0,1,17.63-2.68C305.39,71.35,306.1,71.36,306.8,71.39Z" fill="#a2756a"/><path d="M278.68,105.69l0-.8c0-.27,0-.54,0-.82a59.08,59.08,0,0,1,8.24-30.14l0-.07.07,0a59,59,0,0,1,17.69-2.69c.8,0,1.5,0,2.13,0l.31,0-.14.27c-.22.44-.43.89-.64,1.34l0,.12h-.07A83.76,83.76,0,0,0,279,105Zm8.5-31.49A58.68,58.68,0,0,0,279,104,84.29,84.29,0,0,1,306,72.6c.16-.34.32-.68.49-1-.55,0-1.14,0-1.81,0A58.74,58.74,0,0,0,287.18,74.2Z" fill="#a2756a"/><path d="M300.77,97.4a58.84,58.84,0,0,0,4.33,22.22,83.87,83.87,0,0,0-14.75,19.46,58.54,58.54,0,0,1-11.5-34.19,83.88,83.88,0,0,1,27.3-32.15A58.88,58.88,0,0,0,300.77,97.4Z" fill="#51574d"/><path d="M290.37,139.45l-.18-.25a58.6,58.6,0,0,1-11.54-34.31v0l0,0A84.14,84.14,0,0,1,306,72.58l.61-.43-.31.67a58.92,58.92,0,0,0-1,46.72l0,.13-.1.09a83.62,83.62,0,0,0-14.72,19.42Zm-11.32-34.52a58.23,58.23,0,0,0,11.27,33.78,83.63,83.63,0,0,1,14.55-19.14,59.33,59.33,0,0,1,.8-46.24A83.77,83.77,0,0,0,279.05,104.93Z" fill="#51574d"/><path d="M278.84,104.07c0,.28,0,.55,0,.82a82.71,82.71,0,0,0-7.93,28.66,83.56,83.56,0,0,1-11.4-19.34,58.81,58.81,0,0,1,16.9-35.67h0A58.42,58.42,0,0,1,287.05,74,58.68,58.68,0,0,0,278.84,104.07Z" fill="#504c4e"/><path d="M271.07,134.07l-.31-.4a83.75,83.75,0,0,1-11.43-19.38l0-.05v0a59.33,59.33,0,0,1,17-35.79l.05,0A58.52,58.52,0,0,1,287,73.84l.5-.16-.27.45A58.75,58.75,0,0,0,279,104.07c0,.27,0,.54,0,.81v.05l0,0a82.51,82.51,0,0,0-7.91,28.6Zm-11.35-19.89a83.2,83.2,0,0,0,11,18.85,83.34,83.34,0,0,1,7.87-28.19c0-.25,0-.51,0-.77a59.09,59.09,0,0,1,8-29.69,57.76,57.76,0,0,0-10.06,4.32A59,59,0,0,0,259.72,114.18Z" fill="#504c4e"/><path d="M290.35,139.08a81.24,81.24,0,0,0-4.38,9.29,84.12,84.12,0,0,1-15.05-14.82,82.71,82.71,0,0,1,7.93-28.66A58.54,58.54,0,0,0,290.35,139.08Z" fill="#504140"/><path d="M286.06,148.69l-.21-.16a84.58,84.58,0,0,1-15.09-14.86l-.05-.06v-.08a83,83,0,0,1,7.95-28.73L279,104l0,.85A58.2,58.2,0,0,0,290.51,139l.07.11-.06.11a81.54,81.54,0,0,0-4.37,9.26Zm-14.93-15.2a83.66,83.66,0,0,0,14.75,14.56,83.12,83.12,0,0,1,4.23-9,58.66,58.66,0,0,1-11.45-33.36A82.69,82.69,0,0,0,271.13,133.49Z" fill="#504140"/><path d="M326.38,146.05l-7.71,13.85a59.11,59.11,0,0,1-28.32-20.82,83.87,83.87,0,0,1,14.75-19.46A59.22,59.22,0,0,0,326.38,146.05Z" fill="#51574d"/><path d="M318.77,160.14l-.16,0a59,59,0,0,1-28.42-20.89l-.08-.1.06-.11A83.7,83.7,0,0,1,305,119.48l.21-.21.12.27a58.65,58.65,0,0,0,21.21,26.34l.15.1Zm-28.19-21.07a58.7,58.7,0,0,0,28,20.59l7.54-13.55A59.1,59.1,0,0,1,305,120,83.28,83.28,0,0,0,290.58,139.07Z" fill="#51574d"/><path d="M318.67,159.9l-1.79,3.21A83.22,83.22,0,0,1,286,148.37a81.24,81.24,0,0,1,4.38-9.29A59.11,59.11,0,0,0,318.67,159.9Z" fill="#734844"/><path d="M317,163.34l-.14,0a83,83,0,0,1-31-14.77l-.13-.1.06-.14a84.88,84.88,0,0,1,4.39-9.3l.15-.28.19.25a58.65,58.65,0,0,0,28.23,20.75l.23.08Zm-30.77-15a82.51,82.51,0,0,0,30.57,14.58l1.6-2.87a59.05,59.05,0,0,1-28-20.56A83,83,0,0,0,286.21,148.3Z" fill="#734844"/><path d="M316.88,163.11l-8.49,15.27c-1.14-.19-2.27-.42-3.38-.67h0a83.45,83.45,0,0,1-22.95-16.65A82.42,82.42,0,0,1,286,148.37,83.29,83.29,0,0,0,316.88,163.11Z" fill="#855f4b"/><path d="M308.49,178.6l-.14,0c-1.08-.18-2.22-.4-3.38-.67l-.08,0a83.7,83.7,0,0,1-23-16.68l-.08-.07,0-.11a82.14,82.14,0,0,1,3.91-12.72l.1-.24.21.16a82.65,82.65,0,0,0,30.84,14.71l.26.06Zm-3.4-1.08c1.09.25,2.17.46,3.19.64l8.3-14.92a83,83,0,0,1-30.52-14.55,81.11,81.11,0,0,0-3.78,12.3A83.14,83.14,0,0,0,305.09,177.52Z" fill="#855f4b"/><path d="M286,148.37a82.42,82.42,0,0,0-3.91,12.68,84.45,84.45,0,0,1-11.32-14.46h0c-.1-1.78-.16-3.58-.16-5.39q0-3.87.34-7.64A84.12,84.12,0,0,0,286,148.37Z" fill="#7e796d"/><path d="M282.18,161.46l-.26-.27a84.7,84.7,0,0,1-11.35-14.5l0-.05v0c-.11-1.84-.16-3.66-.16-5.4,0-2.54.11-5.11.34-7.66l0-.5.31.39a84.07,84.07,0,0,0,15,14.79l.12.09-.06.14a82.45,82.45,0,0,0-3.89,12.66Zm-11.24-14.94a84.06,84.06,0,0,0,11,14.13,82.83,82.83,0,0,1,3.78-12.22,84,84,0,0,1-14.65-14.36c-.2,2.37-.3,4.76-.3,7.12C270.78,142.91,270.83,144.7,270.94,146.52Z" fill="#7e796d"/><path d="M270.58,141.19c0,1.81.06,3.61.16,5.39a83,83,0,0,1-11.38-30.44v0c0-.64.1-1.28.16-1.91a83.56,83.56,0,0,0,11.4,19.34C270.7,136.06,270.58,138.61,270.58,141.19Z" fill="#7e796d"/><path d="M271,147.36l-.42-.67a83.07,83.07,0,0,1-11.4-30.46l-.09-.09.09-.1c0-.62.09-1.24.15-1.85l.07-.79.31.73a83,83,0,0,0,11.38,19.29l.05.07v.08c-.23,2.53-.34,5.1-.34,7.62,0,1.74.05,3.55.16,5.38Zm-11.43-31.23A82.53,82.53,0,0,0,270.5,145.8c-.08-1.57-.12-3.12-.12-4.61,0-2.51.11-5.06.34-7.58A83.74,83.74,0,0,1,259.65,115C259.61,115.39,259.59,115.76,259.56,116.13Z" fill="#7e796d"/><path d="M305,177.7a58.53,58.53,0,0,1-23.89-11.65c.27-1.68.58-3.35.95-5A83.55,83.55,0,0,0,305,177.7Z" fill="#734844"/><path d="M306.63,178.28,305,177.9a59.3,59.3,0,0,1-24-11.69l-.09-.08,0-.11c.29-1.8.6-3.44,1-5l.08-.36.25.27a83.34,83.34,0,0,0,22.89,16.6ZM281.32,166a58.92,58.92,0,0,0,22,11.12,83.54,83.54,0,0,1-21.17-15.63C281.86,162.88,281.58,164.36,281.32,166Z" fill="#734844"/><path d="M272.05,156.93a58.76,58.76,0,0,1-12.83-36.74c0-1.36,0-2.71.14-4a83,83,0,0,0,11.38,30.44h0A85.66,85.66,0,0,0,272.05,156.93Z" fill="#724f43"/><path d="M272.4,157.68l-.5-.63A58.53,58.53,0,0,1,259,120.19c0-1.34.05-2.7.14-4.06l.12-1.74.28,1.72a82.62,82.62,0,0,0,11.35,30.37l0,0v.06a87.25,87.25,0,0,0,1.31,10.31Zm-12.93-39.76c0,.76-.05,1.52-.05,2.27a58.2,58.2,0,0,0,12.29,36,82.36,82.36,0,0,1-1.16-9.53A82.64,82.64,0,0,1,259.47,117.92Z" fill="#724f43"/><path d="M280.2,184.06a59,59,0,0,1-25.44-85.17,82.27,82.27,0,0,0,4.12,13.74h0c.13,1.17.3,2.33.48,3.48v0c-.09,1.34-.14,2.69-.14,4a58.76,58.76,0,0,0,12.83,36.74,83.24,83.24,0,0,0,8,23C280.08,181.31,280.13,182.69,280.2,184.06Z" fill="#5a4e4d"/><path d="M280.42,184.38l-.3-.14a59.22,59.22,0,0,1-25.53-85.46l.27-.42.1.49a82.44,82.44,0,0,0,4.1,13.71l0,.07c.11,1,.27,2.12.47,3.42h0v.15c-.09,1.34-.14,2.68-.14,4a58.13,58.13,0,0,0,12.79,36.61l0,.09a82.66,82.66,0,0,0,8,22.93l0,.09c0,1.29.05,2.64.13,4.14Zm-25.75-85A58.85,58.85,0,0,0,280,183.74c-.07-1.35-.1-2.59-.11-3.78a82.79,82.79,0,0,1-8-23A58.51,58.51,0,0,1,259,120.19c0-1.3.05-2.64.14-4l-.08-.08.07-.08c-.2-1.28-.35-2.36-.47-3.4A81.67,81.67,0,0,1,254.67,99.41Z" fill="#5a4e4d"/><path d="M282.06,161.05c-.37,1.65-.68,3.32-.95,5a59.64,59.64,0,0,1-9.06-9.12,85.66,85.66,0,0,1-1.31-10.34A84.45,84.45,0,0,0,282.06,161.05Z" fill="#855f4b"/><path d="M281.25,166.42l-.27-.21a59.59,59.59,0,0,1-9.08-9.16l0-.08a86.2,86.2,0,0,1-1.32-10.37l-.05-.8.42.68a84.31,84.31,0,0,0,11.29,14.44l.08.07,0,.11c-.36,1.56-.67,3.19-1,5Zm-9-9.58a59.75,59.75,0,0,0,8.72,8.84c.27-1.63.56-3.12.88-4.56A84.66,84.66,0,0,1,271,147.37,83.73,83.73,0,0,0,272.24,156.84Z" fill="#855f4b"/><path d="M280.07,179.28v.63a83.24,83.24,0,0,1-8-23,59.64,59.64,0,0,0,9.06,9.12A83.66,83.66,0,0,0,280.07,179.28Z" fill="#6b5f51"/><path d="M280.29,180.77l-.4-.76a83.22,83.22,0,0,1-8-23l-.15-.8.5.63a58.31,58.31,0,0,0,9,9.09l.09.08,0,.11a84.31,84.31,0,0,0-1,13.2v.63Zm-7.88-23.09a82.15,82.15,0,0,0,7.46,21.4,84.8,84.8,0,0,1,1-13A58.39,58.39,0,0,1,272.41,157.68Z" fill="#6b5f51"/><path d="M308,179.1l-1.19,2.13-5.38,8a58.68,58.68,0,0,1-18.27-4h0q-1.63-2.62-3.08-5.39v-.63a83.66,83.66,0,0,1,1-13.23A58.51,58.51,0,0,0,305,177.7h0C306,178.19,307,178.66,308,179.1Z" fill="#614b3f"/><path d="M301.52,189.47h-.11a58.91,58.91,0,0,1-18.33-4l-.13-.05v-.09c-1.1-1.77-2.12-3.57-3.06-5.35l0-.09v-.64a85.08,85.08,0,0,1,1-13.26l0-.34.27.22a59,59,0,0,0,23.82,11.61l.08,0c1.09.54,2.05,1,2.94,1.38l.2.08L307,181.33Zm-18.23-4.32a58.2,58.2,0,0,0,18,3.91l5.33-7.94,1.07-1.93c-.85-.37-1.76-.8-2.78-1.3a59.23,59.23,0,0,1-23.68-11.47,85,85,0,0,0-1,12.86v.58C281.19,181.63,282.21,183.4,283.29,185.15Z" fill="#614b3f"/><path d="M283.15,185.3c-1-.38-2-.8-2.95-1.24-.08-1.37-.12-2.75-.13-4.15Q281.51,182.67,283.15,185.3Z" fill="#614b3f"/><path d="M283.64,185.7l-.56-.21c-.93-.36-1.9-.77-3-1.25l-.11-.05v-.12c-.08-1.49-.12-2.85-.13-4.15v-.83l.38.73c.93,1.79,2,3.6,3.07,5.38Zm-3.25-1.77c.81.36,1.56.68,2.28,1q-1.28-2.07-2.39-4.16C280.29,181.75,280.33,182.8,280.39,183.93Z" fill="#614b3f"/><path d="M435.83,128.46c-1.13,1.06-2.31,2.08-3.52,3a84.43,84.43,0,0,0-8.79-10.62,83.62,83.62,0,0,0,2-18.23c0-1.82-.06-3.62-.17-5.4.32.52.64,1,.95,1.58h0Z" fill="#54584b"/><path d="M432.26,131.79l-.12-.17a83.42,83.42,0,0,0-8.76-10.6l-.08-.08,0-.11a83.36,83.36,0,0,0,2-18.18c0-1.74-.06-3.56-.17-5.39l0-.79.42.67c.32.53.64,1.06,1,1.59l0,0,9.57,29.74-.09.09c-1.12,1-2.31,2.08-3.54,3Zm-8.52-11a84.26,84.26,0,0,1,8.61,10.4c1.12-.9,2.22-1.84,3.25-2.81l-9.49-29.5c-.16-.28-.34-.57-.52-.87.08,1.57.13,3.12.13,4.62A84.4,84.4,0,0,1,423.74,120.81Z" fill="#54584b"/><path d="M425.52,102.65a83.62,83.62,0,0,1-2,18.23,81.51,81.51,0,0,0-7.21-6.57,58.32,58.32,0,0,0,2.46-16.71q.76-4,1.14-8.12a85.64,85.64,0,0,1,5.44,7.76h0C425.46,99,425.52,100.83,425.52,102.65Z" fill="#444141"/><path d="M423.63,121.28l-.25-.26a81.89,81.89,0,0,0-7.19-6.55l-.11-.09,0-.13a58.34,58.34,0,0,0,2.45-16.65,81.89,81.89,0,0,0,1.14-8.13l.05-.5.31.39a84.86,84.86,0,0,1,5.45,7.78l0,0v.06c.11,1.84.17,3.66.17,5.41a84.8,84.8,0,0,1-2,18.27Zm-7.09-7a82,82,0,0,1,6.86,6.23,83.84,83.84,0,0,0,1.92-17.82c0-1.73-.06-3.53-.17-5.35a83.74,83.74,0,0,0-5.09-7.3c-.24,2.55-.61,5.12-1.09,7.64A58.54,58.54,0,0,1,416.54,114.24Z" fill="#444141"/><path d="M419.91,89.48c.23-2.51.35-5.06.35-7.63,0-.63,0-1.26,0-1.88l5,15.46h0c.05.6.1,1.21.14,1.81A85.64,85.64,0,0,0,419.91,89.48Z" fill="#4f4949"/><path d="M425.61,98l-.43-.69a82.18,82.18,0,0,0-5.43-7.74l-.05-.06v-.08c.23-2.54.35-5.1.35-7.62,0-.63,0-1.25,0-1.88l0-1.39,5.41,16.85c0,.59.1,1.19.14,1.8Zm-5.49-8.62c1.77,2.26,3.44,4.62,5,7,0-.33,0-.67-.08-1l-4.56-14.14c0,.18,0,.36,0,.54C420.46,84.35,420.34,86.9,420.12,89.42Z" fill="#4f4949"/><path d="M425.35,97.25h0c0-.6-.09-1.21-.14-1.81l1.09,3.4C426,98.3,425.67,97.77,425.35,97.25Z" fill="#4f4949"/><path d="M427.05,100.52l-.93-1.59c-.3-.53-.62-1.06-.94-1.58l0,0v-.06c0-.59-.09-1.19-.14-1.79l-.16-1.79Zm-1.5-3.34,0,0,0-.11Z" fill="#4f4949"/><path d="M416.48,140.48a83.92,83.92,0,0,1-25.72,30l-12.11-16.35c1.18-.69,2.34-1.4,3.48-2.15a58.28,58.28,0,0,0,13.48-7.74h0A58.75,58.75,0,0,0,416.48,140.48Z" fill="#424040"/><path d="M390.72,170.78l-12.37-16.69.2-.11c1.2-.7,2.37-1.42,3.47-2.13a58.74,58.74,0,0,0,13.47-7.74l.05,0h.07a58.38,58.38,0,0,0,20.8-3.78l.49-.18-.24.46a84.44,84.44,0,0,1-25.78,30.1Zm-11.78-16.56,11.87,16a84.1,84.1,0,0,0,25.26-29.38,58.75,58.75,0,0,1-20.39,3.62,58.46,58.46,0,0,1-13.48,7.73C381.19,152.87,380.08,153.55,378.94,154.22Z" fill="#424040"/><path d="M416.31,114.31a59,59,0,0,1-20.7,30q-1.64,0-3.24-.09a83.64,83.64,0,0,0,22-31.42C415,113.27,415.66,113.78,416.31,114.31Z" fill="#514243"/><path d="M395.67,144.47h-.06c-1.06,0-2.15,0-3.25-.09l-.48,0,.36-.32a84,84,0,0,0,21.92-31.34l.1-.25.21.16c.71.54,1.35,1.05,2,1.56l.1.08,0,.13a59.55,59.55,0,0,1-20.77,30.06Zm-2.81-.46c.91,0,1.81.06,2.68.06a59.19,59.19,0,0,0,20.54-29.69l-1.64-1.3A84.42,84.42,0,0,1,392.86,144Z" fill="#514243"/><path d="M392.37,144.18A83,83,0,0,1,382.13,152c-1.31.55-2.64,1-4,1.47l-2.84-3.83a58.09,58.09,0,0,0,7.06-6.88h0A57.79,57.79,0,0,0,392.37,144.18Z" fill="#49433f"/><path d="M378.07,153.72l-3-4.1.15-.12a59.27,59.27,0,0,0,7-6.86l.06-.07h.14a58.83,58.83,0,0,0,10,1.4l.48,0-.36.32a83.91,83.91,0,0,1-10.26,7.85c-1.3.55-2.65,1-4,1.49Zm-2.49-4,2.64,3.57c1.33-.44,2.61-.91,3.83-1.42a83,83,0,0,0,9.83-7.48,57.77,57.77,0,0,1-9.43-1.36A57.91,57.91,0,0,1,375.58,149.68Z" fill="#49433f"/><path d="M382.13,152c-1.14.75-2.3,1.46-3.48,2.15l-.5-.68C379.49,153,380.82,152.56,382.13,152Z" fill="#444141"/><path d="M378.59,154.42l-.77-1,.26-.09c1.38-.44,2.71-.94,4-1.46l.19.35c-1.11.72-2.28,1.45-3.49,2.15Zm-.12-.84.23.31c.53-.3,1.05-.61,1.55-.93C379.67,153.18,379.07,153.39,378.47,153.58Z" fill="#444141"/><path d="M382.37,142.77a58.09,58.09,0,0,1-7.06,6.88l-3.51-4.73c.73-1.57,1.4-3.18,2-4.83A57.07,57.07,0,0,0,382.37,142.77Z" fill="#51443e"/><path d="M375.27,149.94l-3.7-5,.05-.11c.74-1.59,1.41-3.22,2-4.82l.07-.2.2.08a57.8,57.8,0,0,0,8.56,2.68l.32.07-.21.25a58.69,58.69,0,0,1-7.1,6.91Zm-3.24-5,3.31,4.46a58.18,58.18,0,0,0,6.66-6.47,57.6,57.6,0,0,1-8.1-2.54C373.36,141.87,372.73,143.4,372,144.9Z" fill="#51443e"/><path d="M373.78,140.09c-.58,1.65-1.25,3.26-2,4.83l-6.86-9.25A58.35,58.35,0,0,0,373.78,140.09Z" fill="#757a76"/><path d="M371.84,145.31,364.17,135l.87.54a59.35,59.35,0,0,0,8.81,4.4l.18.07-.06.18c-.57,1.62-1.24,3.25-2,4.86Zm-6.14-8.95,6.06,8.17c.66-1.43,1.25-2.89,1.77-4.33A59.12,59.12,0,0,1,365.7,136.36Z" fill="#757a76"/><path d="M308.39,178.38l-.4.72c-1-.44-2-.91-3-1.39C306.12,178,307.25,178.19,308.39,178.38Z" fill="#734844"/><path d="M308.08,179.36l-.17-.08c-.9-.4-1.88-.85-3-1.39l-1.55-.76,1.68.38c1.16.27,2.29.49,3.37.67l.28,0Zm-1.46-1.1,1.28.58.18-.31Z" fill="#734844"/><path d="M402.18,23.09v-.23a17.64,17.64,0,0,0-9.29-15.54A20.31,20.31,0,0,1,400.21.55a6.44,6.44,0,0,1,.6-.31,17.63,17.63,0,0,1,1.37,22.85Z" fill="#62463c"/><path d="M401.93,23.74l.05-.67v-.21A17.4,17.4,0,0,0,392.79,7.5l-.19-.1.12-.19A20.62,20.62,0,0,1,400.11.37s.24-.14.61-.31l.13-.06.1.1a17.82,17.82,0,0,1,1.39,23.11ZM393.18,7.25a17.82,17.82,0,0,1,9.2,15.22,17.42,17.42,0,0,0-1.62-22l-.45.24A20.12,20.12,0,0,0,393.18,7.25Z" fill="#62463c"/><path d="M380,10.32c-1.47-.9-3-1.74-4.5-2.54a16.81,16.81,0,0,1,3.41-1.59A24.75,24.75,0,0,1,380,10.32Z" fill="#453c3b"/><path d="M380.25,10.73l-.39-.24c-1.47-.89-3-1.74-4.49-2.54l-.31-.16.3-.18A17.1,17.1,0,0,1,378.81,6l.17-.06.08.16a25.34,25.34,0,0,1,1.1,4.18Zm-4.38-3c1.28.67,2.56,1.39,3.8,2.14a24.74,24.74,0,0,0-.91-3.47A17,17,0,0,0,375.87,7.77Z" fill="#453c3b"/><path d="M382.9,27.65c-.85.18-1.7.4-2.54.62a17.59,17.59,0,0,1-9.84-15.8,1.93,1.93,0,0,1,0-.24,17.62,17.62,0,0,1,4.93-4.45c1.53.8,3,1.64,4.5,2.54C381.06,15.59,382.36,24,382.9,27.65Z" fill="#855f4b"/><path d="M380.34,28.48l-.07,0a17.69,17.69,0,0,1-9.95-16,2.35,2.35,0,0,1,0-.26v-.05l0-.05a17.72,17.72,0,0,1,5-4.5l.1-.06.1,0c1.52.8,3,1.65,4.51,2.55l.07,0,0,.09c1,5,2.29,13,2.93,17.34l0,.18-.18,0c-.81.18-1.66.39-2.53.62ZM370.72,12.3v.17a17.31,17.31,0,0,0,9.66,15.59c.79-.21,1.56-.4,2.29-.57-.65-4.32-1.85-12.08-2.89-17-1.4-.85-2.86-1.67-4.31-2.43A17.37,17.37,0,0,0,370.72,12.3Z" fill="#855f4b"/><path d="M380.36,28.27l-.15,0A82.7,82.7,0,0,0,367,22.86a17.51,17.51,0,0,1,3.57-10.63,1.93,1.93,0,0,0,0,.24A17.59,17.59,0,0,0,380.36,28.27Z" fill="#52423e"/><path d="M380.18,28.52l-.06,0a83.31,83.31,0,0,0-13.22-5.44l-.14-.05v-.14a17.65,17.65,0,0,1,3.61-10.75l.4-.54,0,.67a1.77,1.77,0,0,0,0,.23,17.31,17.31,0,0,0,9.72,15.62l.52.25Zm-13-5.81a83.83,83.83,0,0,1,10.28,4,17.66,17.66,0,0,1-7.11-13.88A17.23,17.23,0,0,0,367.16,22.71Z" fill="#52423e"/><path d="M380.21,28.31l-1.23.35q-.6.16-1.17.36c-.32.09-.64.2-.95.3l-.44.15-1,.37-.12,0-.93.35-.45.18c-.33.12-.64.25-1,.39-1.1.45-2.18.95-3.24,1.47A17.5,17.5,0,0,1,367,22.86,82.7,82.7,0,0,1,380.21,28.31Z" fill="#52423e"/><path d="M369.61,32.53l-.09-.15a17.72,17.72,0,0,1-2.76-9.52v-.28l.26.08a84.09,84.09,0,0,1,13.28,5.47l.46.24-.5.13-1.23.35c-.39.12-.78.23-1.16.36s-.64.2-.95.3l-.43.15-1,.36-.09,0c-.35.12-.65.24-1,.36l-.45.17L373,31c-1.09.45-2.17.95-3.24,1.47Zm-2.45-9.4a17.4,17.4,0,0,0,2.6,8.88c1-.5,2.06-1,3.09-1.4l1-.39.45-.18c.31-.12.62-.24.93-.34l.09,0,1.07-.38.43-.15,1-.31,1.17-.35.74-.22A83,83,0,0,0,367.16,23.13Z" fill="#52423e"/><path d="M402.18,22.86v.23a17.44,17.44,0,0,1-3.09,3.16,83.54,83.54,0,0,0-10.16-9.65,30.09,30.09,0,0,1,4-9.28A17.64,17.64,0,0,1,402.18,22.86Z" fill="#855f4b"/><path d="M399.07,26.52l-.13-.14a82.92,82.92,0,0,0-10.13-9.62l-.1-.08,0-.13a30.07,30.07,0,0,1,4-9.34l.1-.15.16.09a17.8,17.8,0,0,1,9.4,15.71v.3l0,.05a17.84,17.84,0,0,1-3.12,3.2Zm-9.91-10A83.7,83.7,0,0,1,399.11,26,16.7,16.7,0,0,0,402,23v-.16a17.4,17.4,0,0,0-9-15.27A29.69,29.69,0,0,0,389.16,16.53Z" fill="#855f4b"/><path d="M399.09,26.25l-.13.11c-1.1-.06-2.21-.1-3.32-.1a60,60,0,0,0-8,.54,44.64,44.64,0,0,1,1.27-10.2A83.54,83.54,0,0,1,399.09,26.25Z" fill="#52423e"/><path d="M387.45,27V26.8a44.32,44.32,0,0,1,1.28-10.25l.08-.3.24.2a83,83,0,0,1,10.18,9.67l.14.15-.16.13-.14.12-.06,0H399c-1.13-.06-2.25-.1-3.31-.1a58.92,58.92,0,0,0-8,.54ZM389.05,17a44.24,44.24,0,0,0-1.19,9.61,59.56,59.56,0,0,1,7.78-.51c1,0,2,0,3.09.08A83.93,83.93,0,0,0,389.05,17Z" fill="#52423e"/><path d="M359.81,38.4a59.23,59.23,0,0,0-16.65,19.89h0a57.1,57.1,0,0,0-3.07,7.08,58.06,58.06,0,0,0-3.28,15.49c-.12,1.45-.17,2.93-.17,4.41a59,59,0,0,0,7.48,28.78l0,.06-.75,1.33h0l-17,30.6a59.07,59.07,0,0,1-20.23-73.31h0c.21-.45.42-.91.64-1.35a59.25,59.25,0,0,1,25.16-26h0a58.73,58.73,0,0,1,27.81-7Z" fill="#52423e"/><path d="M326.45,146.34l-.18-.13A59.25,59.25,0,0,1,306,72.66l.06-.12c.19-.42.39-.83.59-1.24a58.48,58.48,0,0,1,6.24-10,59.85,59.85,0,0,1,18.9-16.06h0l.11-.06a59.32,59.32,0,0,1,27.9-7h.59l-.43.36a57.53,57.53,0,0,0-8.67,8.14,58.47,58.47,0,0,0-7.92,11.68l-.06.11a56.23,56.23,0,0,0-3,6.95A57.63,57.63,0,0,0,337,80.87c-.12,1.44-.17,2.92-.17,4.4A58.61,58.61,0,0,0,344.3,114a.29.29,0,0,1,0,.08l0,.09-.79,1.42Zm-20.17-73.4a58.81,58.81,0,0,0,20,72.82l17.61-31.65a59,59,0,0,1-7.49-28.84c0-1.49.05-3,.17-4.43A58.14,58.14,0,0,1,339.9,65.3,56.58,56.58,0,0,1,343,58.2l.06-.11A59.2,59.2,0,0,1,359.22,38.6a58.93,58.93,0,0,0-27.06,6.87v.08H332a59.1,59.1,0,0,0-18.83,16,57.69,57.69,0,0,0-6.2,9.94c-.22.44-.43.89-.64,1.34Z" fill="#52423e"/><path d="M419.25,68.87l-.94-.23a83.82,83.82,0,0,0-4.53-8.73c-.29-.49-.59-1-.89-1.47-.09-.14-.18-.29-.28-.43-.25-.4-.5-.79-.76-1.18l-.08-.12c-.3-.47-.61-.93-.93-1.39l-.67-1-.07-.1-.62-.85c-.25-.35-.5-.7-.76-1l-.41-.53c-.21-.28-.42-.55-.65-.83-1.11-1.42-2.28-2.82-3.49-4.16l-.6-.67c-.35-.37-.68-.74-1-1.1s-.61-.64-.91-.94l-.05,0-.28-.28c-.18-.2-.38-.38-.57-.57-.34-.34-.67-.67-1-1l-.13-.12c-.25-.24-.5-.48-.77-.72a1.29,1.29,0,0,0-.17-.16l-.14-.13c-.43-.4-.87-.8-1.32-1.19-.93-.82-1.88-1.63-2.85-2.4-.27-.22-.54-.44-.82-.65s-.55-.44-.83-.65l-.58-.44L391,35,390,34.23c-.72-.5-1.45-1-2.18-1.48L386.63,32l-.06,0-1.23-.77-.69-.42-.73-.42c-1.21-.71-2.45-1.39-3.71-2l.15,0c.84-.22,1.69-.44,2.54-.62,1.56-.35,3.15-.64,4.76-.85a60,60,0,0,1,8-.54c1.11,0,2.22,0,3.32.1h.25c.67.76,1.33,1.53,2,2.32.34.41.68.83,1,1.25s.66.83,1,1.26l.82,1.1,1.06,1.47.77,1.11c.22.32.43.64.64,1s.36.54.53.81l.28.44c.15.23.29.47.43.7s.35.56.52.84a.51.51,0,0,1,.09.16c.22.36.44.72.65,1.09l.15.25.64,1.13c.57,1,1.11,2.05,1.63,3.09.19.36.36.73.54,1.09.09.17.17.34.24.5.25.51.48,1,.71,1.54s.48,1.06.71,1.6c.06.14.11.27.17.4.16.38.31.76.47,1.15.08.19.15.37.22.56.21.53.42,1.07.62,1.61.36,1,.71,2,1,3,.13.37.24.75.36,1.14l.05.16c.13.38.24.77.35,1.16.06.18.11.35.16.53.18.62.36,1.25.51,1.88.09.31.17.62.24.94.24.93.45,1.86.65,2.8s.41,2,.58,3C419.09,67.86,419.17,68.36,419.25,68.87Z" fill="#38444a"/><path d="M419.5,69.15l-.3-.09-.93-.23-.1,0,0-.09A83.66,83.66,0,0,0,413.61,60c-.29-.49-.59-1-.89-1.46l-.08-.12c-.06-.1-.12-.2-.19-.3-.26-.41-.51-.8-.77-1.19a.52.52,0,0,0-.07-.11c-.31-.48-.62-.94-.94-1.4s-.44-.64-.67-1l-.07-.11-.61-.85c-.25-.34-.5-.69-.76-1l-.41-.54c-.21-.28-.42-.55-.64-.82-1.14-1.45-2.31-2.85-3.49-4.16l-.64-.7c-.33-.36-.65-.71-1-1.06s-.6-.64-.9-.94l-.05,0-.28-.29-.55-.55c-.36-.36-.69-.68-1-1l-.39-.37-.5-.48-.08-.07-.1-.09-.13-.12-1.28-1.16,0,0c-1-.87-1.92-1.65-2.84-2.4l-.82-.65-.77-.59-.06,0L392,36l-.06,0-1.05-.78c-.35-.26-.71-.52-1.07-.76-.62-.44-1.29-.9-2.17-1.48l-1.17-.76.05-.2-.09.17-1.25-.77-.68-.41-.73-.43c-1.18-.69-2.42-1.38-3.7-2l-.48-.25.67-.16c.89-.24,1.72-.45,2.55-.63,1.6-.35,3.21-.64,4.77-.85a59.66,59.66,0,0,1,8-.54c1.07,0,2.19,0,3.33.1l.33,0,.06.06c.72.82,1.37,1.58,2,2.33.34.41.67.82,1,1.25s.66.83,1,1.26l.82,1.1c.37.49.72,1,1.06,1.47s.49.7.73,1.06l0,.06.65,1c.18.27.36.54.53.82s.19.29.28.44.29.46.43.69.36.57.52.85a.85.85,0,0,1,.1.17c.22.34.43.71.64,1.08a1.64,1.64,0,0,1,.16.26c.21.36.41.73.62,1.1q.87,1.56,1.65,3.12c.19.37.36.73.54,1.1.09.16.17.33.25.5.24.51.48,1,.7,1.54s.49,1.06.71,1.61c.06.13.12.26.17.39l.48,1.16.07.19.15.37c.21.53.41,1.07.61,1.61.37,1,.72,2,1,3q.19.55.36,1.14l.05.16c.13.38.24.77.35,1.16.06.18.11.36.16.54.2.67.37,1.28.52,1.88l.24,1c.23.91.45,1.85.65,2.8s.38,1.83.58,3c.09.5.17,1,.25,1.51Zm-1.05-.68.56.13c-.07-.4-.13-.8-.2-1.2-.21-1.16-.39-2.11-.58-3s-.42-1.88-.65-2.79l-.24-.94c-.15-.59-.32-1.2-.51-1.87-.05-.18-.11-.36-.16-.53-.11-.39-.23-.78-.35-1.16l-.05-.17c-.12-.38-.23-.75-.36-1.12-.32-1-.66-2-1-3-.2-.54-.41-1.08-.61-1.61l-.15-.36-.08-.19c-.15-.39-.31-.77-.47-1.15-.05-.13-.11-.26-.17-.39-.22-.55-.46-1.08-.7-1.61s-.46-1-.71-1.53c-.07-.17-.15-.33-.24-.5-.18-.37-.35-.73-.54-1.09-.51-1-1.06-2.07-1.63-3.08-.22-.4-.42-.76-.64-1.13a1.38,1.38,0,0,0-.14-.24c-.21-.38-.43-.74-.65-1.1a.49.49,0,0,0-.08-.13c-.18-.31-.35-.59-.53-.87s-.28-.46-.43-.69-.18-.29-.28-.43-.35-.55-.53-.82-.42-.64-.64-1l0-.06-.72-1c-.35-.49-.7-1-1.06-1.46l-.82-1.1-1-1.26c-.33-.42-.66-.83-1-1.24-.6-.73-1.23-1.46-1.93-2.25h-.17c-1.12-.06-2.24-.1-3.3-.1a58.92,58.92,0,0,0-8,.54c-1.55.21-3.14.49-4.74.84-.7.16-1.42.33-2.18.53,1.13.59,2.22,1.19,3.26,1.81l.73.42.69.42c.42.25.83.51,1.23.77l0,.2.09-.18,1.19.77c.88.59,1.56,1.05,2.18,1.49l1.07.77,1.06.78.06,0,.52.4.07,0c.25.2.51.39.76.6l.83.65c.93.75,1.86,1.53,2.85,2.41l.05,0L398.64,41l.15.14.07.07.09.08.51.47.39.38,1,1,.58.58.28.29,0,0c.3.31.61.62.91.94s.67.71,1,1.06l.64.71c1.18,1.32,2.36,2.72,3.5,4.18.22.27.44.55.65.83l.41.54c.26.33.51.68.76,1l.62.85.07.11c.23.31.46.63.67,1s.63.92.94,1.39l.09.14c.25.37.5.77.75,1.17.07.09.14.2.21.31l.07.12c.3.48.6,1,.89,1.47A80.88,80.88,0,0,1,418.45,68.47Z" fill="#38444a"/><path d="M419.66,71.86c-.42-1.08-.88-2.16-1.35-3.22l.94.23C419.41,69.86,419.54,70.86,419.66,71.86Z" fill="#38444a"/><path d="M420,73.38l-.56-1.45c-.41-1-.87-2.12-1.35-3.21l-.17-.36.39.08q.48.11,1,.24l.12,0,0,.13c.15.94.28,1.93.41,3Zm-1.39-4.46c.22.48.42,1,.62,1.44-.06-.46-.13-.9-.2-1.33Z" fill="#38444a"/><path d="M418.77,97.6a58.32,58.32,0,0,1-2.46,16.71c-.65-.53-1.3-1-2-1.55A82.68,82.68,0,0,0,418.77,97.6Z" fill="#947060"/><path d="M416.42,114.66l-.23-.19c-.62-.5-1.26-1-2-1.55l-.12-.09.05-.14a81.42,81.42,0,0,0,4.41-15.12l.4,0a58.48,58.48,0,0,1-2.47,16.77Zm-1.83-2c.57.44,1.11.85,1.62,1.27a58.76,58.76,0,0,0,2.31-14.16A83.06,83.06,0,0,1,414.59,112.7Z" fill="#947060"/><path d="M395.61,144.27A58.28,58.28,0,0,1,382.13,152a83,83,0,0,0,10.24-7.83Q394,144.27,395.61,144.27Z" fill="#444141"/><path d="M382.2,152.2l-.18-.35A84,84,0,0,0,392.24,144l.06-.05h.08c1.1.06,2.18.09,3.23.09h.59l-.47.36A58.57,58.57,0,0,1,382.2,152.2Zm10.24-7.82a82,82,0,0,1-8.38,6.58,58.24,58.24,0,0,0,11-6.49Q393.75,144.46,392.44,144.38Z" fill="#444141"/><path d="M132.57,90.84a4,4,0,0,1,0,1.5c-1.07,2.25-2.17,4.49-3.35,6.67-2.45,4.52-4.8,9-5.52,14.26a13.84,13.84,0,0,0,1.52,9.11,10.79,10.79,0,0,0,8,5.22c5.69,1,10.76-.7,15.23-4.09a26.36,26.36,0,0,0,5.13-5.31c2.2-3,1.05-5.53-1.79-7.17-1-.59-2.12-1.07-3.12-1.71a4.67,4.67,0,0,1-2.19-5.19,38.2,38.2,0,0,1,6.13-14.45,49.4,49.4,0,0,1,7.93-9.76c1.66-1.5,3.47-2.87,5.84-2.9a6.93,6.93,0,0,1,2.72.75c1.08.48,1,1.59.76,2.46a13.06,13.06,0,0,1-3.38,6.16,1.08,1.08,0,0,1-1.82,0,2.92,2.92,0,0,0-3.68-.61,13.56,13.56,0,0,0-5,4c-1.39,1.79-2.85,3.53-4.14,5.39a11.82,11.82,0,0,0-1.38,3.12,2.12,2.12,0,0,0,1.6,2.57c.86.32,1.7.69,2.58.93,2.57.71,3.58,3,3.73,5.33a25.63,25.63,0,0,1-2,10.44,39.81,39.81,0,0,1-5.88,10.61,24.38,24.38,0,0,1-14.3,9.41c-4.53,1-8.87.26-12.3-3.19a14.43,14.43,0,0,1-3.94-8.72c-.81-6.52.87-12.58,3.25-18.5A88.66,88.66,0,0,1,131,92.08a4.35,4.35,0,0,1,.38-.57c.24-.25.5-.48.75-.71Z" fill="#353535"/><path d="M52.42,55.34c-.15,1.84-.27,3.67-.45,5.5s-.45,3.74-.68,5.6c-.3,2.56-.61,5.11-.91,7.67-.25,2.22-.46,4.44-.73,6.65s-.58,4.26-.86,6.39c-.27,2-.5,4-.78,5.94-.54,3.79-.9,7.63-1.72,11.36a128,128,0,0,1-3.45,12.33,53.62,53.62,0,0,1-7.6,14.75,26.83,26.83,0,0,1-10,8.59,22.06,22.06,0,0,1-11.65,2.22,14.06,14.06,0,0,1-12-7.78A16.23,16.23,0,0,1,.14,125a38.75,38.75,0,0,1,5-14.54,29.08,29.08,0,0,1,6-8.23l.37.1a3.14,3.14,0,0,1-.18,1c-1.33,2.55-2.75,5-4,7.62-1.59,3.21-3,6.49-2.92,10.18a11.17,11.17,0,0,0,8.86,11.06,23.92,23.92,0,0,0,19.7-4.5,20.42,20.42,0,0,0,8-13.29c.79-4.21,1.52-8.44,2.1-12.68.46-3.28.68-6.59,1-9.89.34-3.84.54-7.7,1-11.53s.33-7.77,1.62-11.49c1.1-3.17,2.21-6.34,3.42-9.47.55-1.45,1.33-2.8,2-4.19Z" fill="#353535"/><path d="M66.27,71.47c0,1.69.09,3.39,0,5.07-.13,1.92-.43,3.82-.66,5.73-.3,2.43-.61,4.87-.91,7.31-.25,2.1-.53,4.2-.71,6.3a73.1,73.1,0,0,0-.43,7.53,9.22,9.22,0,0,0,1.08,4c1.28,2.34,3.58,3.1,6.3,2.5a13.56,13.56,0,0,0,5.44-2.82,18.21,18.21,0,0,1,2.3-1.51c1.17-.64,2.27-.09,3.27.43,2.11,1.1,4.12.75,6.19-.12,3.31-1.4,5.92-3.81,8.72-5.94.94-.72,1.82-1.49,2.93-2.41-2-1.1-3.68-2.22-5.54-3.08-2.15-1-4-.15-5.66,1.33-.68.62-1.37,1.22-2,1.83l-.33-.15c.12-.43.12-1,.38-1.26a77.48,77.48,0,0,1,5.74-5.86c1.75-1.5,3.06-1.3,5.23.15,1.18.78,2.32,1.63,3.51,2.38a6.17,6.17,0,0,0,5.08.6,4,4,0,0,1,1-.13c1.18,0,1.38.36,1.11,1.47-.44,1.83-1.84,2.41-3.4,2.93a25.76,25.76,0,0,0-7.79,4.79c-2.9,2.35-5.63,4.93-8.65,7.11a17.44,17.44,0,0,1-5.08,1.94,3.39,3.39,0,0,1-3.09-.95c-2-1.6-3.28-1-4.81,1-1.37,1.8-2.56,3.74-4,5.47s-3.41,3.12-5.92,2.67c-3-.55-4.59-2.67-5.28-5.46a25.86,25.86,0,0,1-.52-9.88c.61-4.33,1.1-8.68,1.67-13,.53-4,.91-8.09,1.7-12.08a71.17,71.17,0,0,1,2.52-8Z" fill="#353535"/><path d="M200.57,71.47c0,1.7.09,3.39,0,5.08-.13,1.91-.42,3.81-.66,5.72-.3,2.44-.61,4.87-.91,7.31-.25,2.1-.53,4.2-.71,6.31-.21,2.46-.41,4.93-.46,7.4a8.15,8.15,0,0,0,1.38,4.66c1.15,1.73,4.05,2.46,5.85,2.26,2.41-.26,3.73-1.69,4.79-3.61.18-.32.58-.51.88-.76.11.44.4.93.31,1.33a26.84,26.84,0,0,1-5.27,10.6c-2.6,3.29-8,2.8-10.22-1a14.83,14.83,0,0,1-1.69-6.85,61.64,61.64,0,0,1,1.32-14.13c.44-2.42.65-4.87,1-7.3.77-5.33,1-10.77,3.3-15.78.2-.45.46-.86.69-1.29Z" fill="#353535"/><path d="M169.34,119.52c.86-.66,1.68-1.37,2.59-2,2.42-1.6,4.89-3.11,7.3-4.73a9.38,9.38,0,0,0,2-1.9,3.26,3.26,0,0,0,.08-4.33c-1.06-1.5-2.23-2.92-3.41-4.34-.4-.49-.69-.84-.34-1.52,1.12-2.21,2.2-4.45,3.22-6.71.4-.88,1-.72,1.45-.31,3.19,2.72,5.51,7.2,4.08,11.8a27.38,27.38,0,0,1-5.48,10,9.79,9.79,0,0,1-3.63,2.3c-2,.83-4.18,1.39-6.3,2a5.32,5.32,0,0,1-1.44,0Z" fill="#353535"/><path d="M79.5,58a20.17,20.17,0,0,0,2.8,1.57c.77.29.79.85.55,1.25s-1,.66-1.27.51a11,11,0,0,1-2.67-2c-.94-1-.34-3.22,1-3.85C83,54.09,86,52.61,89.16,51.26c4.17-1.8,8.37-3.52,12.58-5.22,3.83-1.54,7.68-3,11.52-4.47.31-.12.64-.17,1.17-.31-.33,1.13-.63,1.89-1.67,2.3-6.56,2.61-13.13,5.19-19.63,7.95-4.43,1.88-8.76,4-13.13,6.06A4.06,4.06,0,0,0,79.5,58Z" fill="#353535"/><path d="M223.21,45.05c-.39,1.14-.73,1.91-1.78,2.31-4.45,1.71-8.89,3.45-13.3,5.26-3.57,1.46-7.1,3-10.63,4.59-3,1.35-6,2.79-9.05,4.18l-.08.4A17.47,17.47,0,0,0,191,63.34c.77.28.81.83.57,1.23s-1,.69-1.26.54a11,11,0,0,1-2.67-2c-1-1-.37-3.22.95-3.85,3.07-1.46,6.14-2.94,9.27-4.29,4.16-1.8,8.37-3.53,12.58-5.22,3.82-1.54,7.68-3,11.52-4.48A12.23,12.23,0,0,1,223.21,45.05Z" fill="#353535"/><path d="M157.08,142.87a20.17,20.17,0,0,0,2.8,1.57c.77.29.79.85.55,1.25s-1,.66-1.27.51a11.29,11.29,0,0,1-2.67-2c-.94-1-.34-3.22,1-3.84,3.08-1.46,6.15-2.94,9.27-4.29,4.17-1.8,8.37-3.53,12.59-5.22,3.82-1.54,7.67-3,11.52-4.47a11.76,11.76,0,0,1,1.16-.31c-.33,1.13-.63,1.89-1.67,2.3-6.56,2.61-13.13,5.19-19.63,8-4.43,1.88-8.76,4-13.13,6.06A4.06,4.06,0,0,0,157.08,142.87Z" fill="#353535"/><path d="M98.45,65.72a9.69,9.69,0,0,1-1.07,2.22,23.08,23.08,0,0,1-2.83,2.85,1.13,1.13,0,0,1-1-.06c-1.43-1-2.78-2.17-4.21-3.2-.59-.42-.64-.76-.19-1.28,1.19-1.41,2.36-2.84,3.56-4.25.41-.49.84-1.26,1.33-1.32s1.1.6,1.63,1C97,62.58,98.34,63.53,98.45,65.72Z" fill="#353535"/><path d="M79.31,79.83c-1.34,1.1-2.93,2-5,1.39a2,2,0,0,1-1.63-2.29,8.81,8.81,0,0,1,1.86-4.37c.08-.12.34-.12.67-.23.1.7.23,1.33.27,2,.09,1.4,1,2,2.06,1a18.28,18.28,0,0,0,2.28-2.92c.18-.24.33-.49.68-1,.34.83.56,1.45.86,2,.2.37.55,1,.79.94a1.65,1.65,0,0,0,1.05-.79,19.32,19.32,0,0,0,1.08-2.13c.35-.71.73-.63,1,0,1.23,2.55-.81,6.41-3.64,6.75A9.1,9.1,0,0,1,79.31,79.83Z" fill="#353535"/><path d="M203.42,82.92l5.13-6.38a9.45,9.45,0,0,1,4,3c1.08,1.27.7,3.22-.87,4.94-.55.6-1.15,1.16-1.73,1.74-1,1-1.24,1-2.36,0-.67-.58-1.38-1.09-2.07-1.64Z" fill="#353535"/><path d="M68,154.28c-2-1.44-3.56-2.67-5.23-3.83-.49-.34-.5-.54-.15-1,1.46-1.83,2.88-3.69,4.37-5.49a1,1,0,0,1,1-.17,10.62,10.62,0,0,1,3.83,3.35,2.46,2.46,0,0,1-.28,3C70.39,151.58,69.16,152.89,68,154.28Z" fill="#353535"/><path d="M72.35,148.85l3.47-4.16A7.42,7.42,0,0,0,77,143.25c.35-.76.82-.79,1.36-.37a34.72,34.72,0,0,1,3.23,2.7,2.46,2.46,0,0,1,.15,3.37,37.29,37.29,0,0,1-3.39,3.73.82.82,0,0,1-.79.06C75.83,151.5,74.16,150.21,72.35,148.85Z" fill="#353535"/><path d="M124.9,156.69c1.59-2,3.15-4,4.76-6a.92.92,0,0,1,.88-.15,34,34,0,0,1,3.68,3.09,2.14,2.14,0,0,1,.09,2.87c-1,1.33-2.18,2.52-3.27,3.8-.54.63-1,.32-1.5,0C128,159.09,126.51,157.92,124.9,156.69Z" fill="#353535"/><path d="M140.33,149.16c1,.68,2.11,1.29,3.07,2,1.85,1.41,1.91,3.69.18,5.65-.74.83-1.56,1.57-2.34,2.36a.93.93,0,0,1-1.39.13c-1.38-1.09-2.75-2.2-4.18-3.22-.56-.4-.61-.72-.21-1.19C137,153,138.63,151.16,140.33,149.16Z" fill="#353535"/><path d="M27.15,89c.26-1.52.45-2.84.72-4.15A23.82,23.82,0,0,1,28.64,82a1.68,1.68,0,0,1,2.17-1.21,2.37,2.37,0,0,1,1.6,2.54c-.1.36-.19.71-.32,1.21-.39-.37-.66-.64-1-.89-1-.86-1.74-.74-2,.5-.45,1.85-.67,3.76-1,5.63-.16.88-.37,1.75-.56,2.63l-.41,0c-.29-.63-.6-1.26-.88-1.9-.4-.91-.72-1.86-1.2-2.72a1.93,1.93,0,0,0-1.89-1.3c-1.87,0-3.21-2.13-2.25-3.53a1.41,1.41,0,0,1,1.19-.42c1.64.31,2.4,1.7,3.19,3C25.93,86.55,26.44,87.67,27.15,89Z" fill="#353535"/><path d="M137.4,65.44a29.85,29.85,0,0,1,1.75,3.3,16,16,0,0,1,.17,11.8c-.62,1.61-1.2,3.32-.62,5.15.2.65.54,1.29,1.2,1.06.49-.17.84-.86,1.15-1.37a3.75,3.75,0,0,0,.19-1.22c.95,1.25.52,3.85-.57,4.5a1.37,1.37,0,0,1-2-.4,5.82,5.82,0,0,1-1-4.93c.36-1.79,1-3.53,1.3-5.32.58-3.36.38-6.62-2.09-9.31-1.07-1.17,0-2.11.13-3.14Z" fill="#353535"/><path d="M8.16,180.63,14.37,188v.19H11l-6-7.44v7.44H2.15V165.88l2.8-.33v15L11,174h3.08v.2Z" fill="#353535"/><path d="M34.74,174.65A4.31,4.31,0,0,1,35.9,178v10.2H33.11v-9.06a5.73,5.73,0,0,0-.24-1.87,1.69,1.69,0,0,0-.81-1,3.51,3.51,0,0,0-1.55-.29,8.55,8.55,0,0,0-2.06.26,9.93,9.93,0,0,0-2,.71v11.21H23.63V165.88l2.79-.33V175a11.06,11.06,0,0,1,5.13-1.4A4.64,4.64,0,0,1,34.74,174.65Z" fill="#353535"/><path d="M56.36,174.75a4.62,4.62,0,0,1,1.25,3.57v9.91H55.07L54.91,187a8.59,8.59,0,0,1-5.17,1.62,5,5,0,0,1-2.2-.47A3.5,3.5,0,0,1,46,186.82a3.64,3.64,0,0,1-.54-2,3.88,3.88,0,0,1,1.27-3,7.7,7.7,0,0,1,3.37-1.74,20.86,20.86,0,0,1,4.68-.62v-.71a3.19,3.19,0,0,0-.58-2.13,2.54,2.54,0,0,0-2-.66,9,9,0,0,0-4.94,1.69l-1.24-2a11.37,11.37,0,0,1,6.53-2.15A5.44,5.44,0,0,1,56.36,174.75ZM49,185.83a2.32,2.32,0,0,0,1.51.42,8.13,8.13,0,0,0,4.32-1.3v-3.38a13.48,13.48,0,0,0-4.58.88c-1.17.5-1.75,1.2-1.75,2.11A1.6,1.6,0,0,0,49,185.83Z" fill="#353535"/><path d="M80,174v.2l-5.42,15A14.67,14.67,0,0,1,73,192.41a4.72,4.72,0,0,1-4.26,2.25,8.61,8.61,0,0,1-2.82-.48L66.7,192a6.09,6.09,0,0,0,1.85.29,3.18,3.18,0,0,0,1.27-.22,2.8,2.8,0,0,0,1-.88,7.54,7.54,0,0,0,1-1.95l.39-1h-.75L66,174.2V174h3l3.34,9.1.36,1,.52,1.53.81-2.5,3.12-9.1Z" fill="#353535"/><path d="M98.13,174.75a4.58,4.58,0,0,1,1.25,3.57v9.91H96.85L96.69,187a8.61,8.61,0,0,1-5.17,1.62,5.08,5.08,0,0,1-2.21-.47,3.56,3.56,0,0,1-1.51-1.33,3.64,3.64,0,0,1-.53-2,3.91,3.91,0,0,1,1.26-3,7.74,7.74,0,0,1,3.38-1.74,20.86,20.86,0,0,1,4.68-.62v-.71a3.19,3.19,0,0,0-.58-2.13,2.56,2.56,0,0,0-2-.66,9,9,0,0,0-4.93,1.69l-1.24-2a11.37,11.37,0,0,1,6.53-2.15A5.39,5.39,0,0,1,98.13,174.75Zm-7.37,11.08a2.31,2.31,0,0,0,1.51.42,8.13,8.13,0,0,0,4.32-1.3v-3.38a13.48,13.48,0,0,0-4.58.88c-1.17.5-1.75,1.2-1.75,2.11A1.57,1.57,0,0,0,90.76,185.83Z" fill="#353535"/><path d="M110.27,188.23V165.88l2.79-.33v22.68Z" fill="#353535"/><path d="M139.08,186.92q-1.82-1.71-1.82-5.45a8.73,8.73,0,0,1,1-4.46,6.4,6.4,0,0,1,2.68-2.59,7.82,7.82,0,0,1,3.5-.81,9.56,9.56,0,0,1,4.48,1.24l-1,2.14a11.35,11.35,0,0,0-2-.78,6.45,6.45,0,0,0-1.7-.23,3.49,3.49,0,0,0-3,1.45,6.62,6.62,0,0,0-1.07,4,5,5,0,0,0,1.09,3.64,3.9,3.9,0,0,0,2.93,1.11,5.7,5.7,0,0,0,2-.34,14.61,14.61,0,0,0,2-1l1.1,2a12.28,12.28,0,0,1-2.48,1.25,8.35,8.35,0,0,1-2.85.47A6.86,6.86,0,0,1,139.08,186.92Z" fill="#353535"/><path d="M158.51,188.23V165.88l2.79-.33v22.68Z" fill="#353535"/><path d="M184.4,173.68v14.55h-2.5l-.16-1.07a10,10,0,0,1-5.07,1.46,4.64,4.64,0,0,1-3.23-1.12,4.32,4.32,0,0,1-1.25-3.4V174l2.79-.32v9.61a4.65,4.65,0,0,0,.26,1.71,1.67,1.67,0,0,0,.84.91,4,4,0,0,0,1.63.27,9,9,0,0,0,3.9-1.2V174Z" fill="#353535"/><path d="M206.17,174.54a5.46,5.46,0,0,1,1.88,2.53,10.07,10.07,0,0,1,.62,3.62,8,8,0,0,1-1.22,4.6,7,7,0,0,1-3.07,2.55,9.75,9.75,0,0,1-3.83.78,16.92,16.92,0,0,1-5.1-.94v-21.8l2.79-.33v9.33a9.75,9.75,0,0,1,4.78-1.27A5.2,5.2,0,0,1,206.17,174.54ZM204.22,185c1-.88,1.46-2.34,1.46-4.37a5.9,5.9,0,0,0-.84-3.41,3,3,0,0,0-2.6-1.2,9.66,9.66,0,0,0-4,.94v9.09a10.37,10.37,0,0,0,2.21.26A5.41,5.41,0,0,0,204.22,185Z" fill="#353535"/></svg>