<svg xmlns="http://www.w3.org/2000/svg" width="805.82" height="185.03" viewBox="0 0 805.82 185.03"><rect x="574.44" y="100.69" width="16.34" height="16.33" fill="#13a89e"/><path d="M593.45,119.68H571.77V98h21.68Zm-16.34-5.33h11v-11h-11Z" fill="#13a89e"/><polygon points="803.15 2.67 803.15 182.37 2.67 182.37 2.67 133.36 100.69 133.36 100.69 149.69 19.01 149.69 19.01 166.03 786.81 166.03 786.81 19 770.48 19 770.48 149.69 721.47 149.69 721.47 117.02 623.45 117.02 623.45 149.69 541.77 149.69 541.77 68.01 574.44 68.01 574.44 84.34 558.11 84.34 558.11 133.36 607.11 133.36 607.11 84.34 590.78 84.34 590.78 68.01 623.45 68.01 623.45 100.69 639.79 100.69 639.79 68.01 656.13 68.01 656.13 100.69 721.47 100.69 721.47 84.34 672.46 84.34 672.46 68.01 737.81 68.01 737.81 133.36 754.14 133.36 754.14 2.67 803.15 2.67" fill="#13a89e"/><path d="M805.82,185H0V130.69H103.35v21.67H21.67v11H784.15V21.66h-11v130.7H718.8V119.68H626.12v32.68h-87v-87h38V87H560.77v43.68h43.68V87H588.12V65.35h38V98h11V65.35h21.67V98h60V87h-49V65.35h70.67v65.34h11V0h54.34ZM5.33,179.7H800.49V5.33H756.81V136H735.14V70.68h-60v11h49v21.67H653.46V70.68h-11v32.67H620.79V70.68H593.45v11h16.33V136H555.44V81.68h16.33v-11H544.43V147h76.36V114.35H724.13V147h43.69V16.33h21.66V168.7H16.34V147H98V136H5.33Z" fill="#13a89e"/><rect x="639.79" y="133.36" width="32.67" height="16.33" fill="#13a89e"/><path d="M675.13,152.36h-38V130.69h38ZM642.45,147H669.8V136H642.45Z" fill="#13a89e"/><rect x="688.79" y="133.36" width="16.34" height="16.33" fill="#13a89e"/><path d="M707.8,152.36H686.13V130.69H707.8ZM691.46,147h11V136h-11Z" fill="#13a89e"/><rect x="362.07" y="133.36" width="32.67" height="16.33" fill="#13a89e"/><path d="M397.4,152.36h-38V130.69h38ZM364.73,147h27.34V136H364.73Z" fill="#13a89e"/><polygon points="345.73 133.36 345.73 149.69 280.39 149.69 280.39 2.67 296.73 2.67 296.73 133.36 345.73 133.36" fill="#13a89e"/><path d="M348.4,152.36H277.72V0h21.67V130.69h49ZM283.05,147h60V136h-49V5.33h-11Z" fill="#13a89e"/><path d="M2.67,2.67v49H133.36V35.34H19V19h228.7V133.36H231.38V100.69h-49v32.67H166V51.67h65.35V35.34H149.69V149.69H264.05V2.67Zm196,130.69V117H215v16.34Z" fill="#13a89e"/><path d="M266.72,152.36H147V32.67h87V54.34H168.7v76.35h11V98H234v32.67h11v-109H21.67v11H136V54.34H0V0H266.72ZM152.36,147h109V5.33H5.33V49H130.69V38H16.34V16.33h234V136H228.71V103.35H185V136H163.37V49h65.34V38H152.36Zm65.34-11H196V114.35H217.7Zm-16.33-5.33h11v-11h-11Z" fill="#13a89e"/><path d="M345.73,2.67V84.35h32.68v16.34h-49v-98H313.06V117h81.68V68H362.07V51.67h32.67v-49Zm32.68,32.67H362.07V19h16.34Z" fill="#13a89e"/><path d="M397.4,119.68h-87V0h21.67V98h43.68V87H343.07V0H397.4V54.34H364.73v11H397.4Zm-81.68-5.33h76.35V70.68H359.4V49h32.67V5.33H348.4V81.68h32.67v21.67H326.73v-98h-11ZM381.07,38H359.4V16.33h21.67Zm-16.34-5.33h11v-11h-11Z" fill="#13a89e"/><rect x="443.75" y="35.34" width="81.68" height="16.33" fill="#13a89e"/><path d="M528.1,54.34h-87V32.67h87ZM446.42,49h76.35V38H446.42Z" fill="#13a89e"/><polygon points="525.43 2.67 525.43 19 427.41 19 427.41 133.36 443.75 133.36 443.75 68.01 460.09 68.01 460.09 133.36 476.43 133.36 476.43 68.01 492.76 68.01 492.76 133.36 509.09 133.36 509.09 68.01 525.43 68.01 525.43 149.69 411.08 149.69 411.08 2.67 525.43 2.67" fill="#13a89e"/><path d="M528.1,152.36H408.42V0H528.1V21.66h-98v109h11V65.35h21.66v65.34h11V65.35h21.67v65.34h11V65.35H528.1ZM413.75,147h109V70.68h-11V136H490.1V70.68h-11V136H457.42V70.68h-11V136H424.75V16.33h98v-11h-109Z" fill="#13a89e"/><rect x="574.44" y="2.67" width="32.67" height="16.33" fill="#13a89e"/><path d="M609.78,21.66h-38V0h38Zm-32.67-5.33h27.34v-11H577.11Z" fill="#13a89e"/><polygon points="737.81 2.67 737.81 19 705.13 19 705.13 51.67 541.77 51.67 541.77 2.67 558.11 2.67 558.11 35.34 623.45 35.34 623.45 2.67 639.79 2.67 639.79 35.34 688.79 35.34 688.79 2.67 737.81 2.67" fill="#13a89e"/><path d="M707.8,54.34H539.1V0h21.67V32.67h60V0h21.66V32.67h43.68V0h54.34V21.66H707.8ZM544.43,49h158V16.33h32.67v-11H691.46V38H637.12V5.33h-11V38H555.44V5.33h-11Z" fill="#13a89e"/><rect x="721.47" y="35.34" width="16.34" height="16.33" fill="#13a89e"/><path d="M740.47,54.34H718.8V32.67h21.67ZM724.13,49h11V38h-11Z" fill="#13a89e"/><rect x="656.13" y="2.67" width="16.33" height="16.33" fill="#13a89e"/><path d="M675.13,21.66H653.46V0h21.67Zm-16.34-5.33h11v-11h-11Z" fill="#13a89e"/><rect x="182.37" y="68.01" width="49.01" height="16.33" fill="#13a89e"/><path d="M234,87H179.7V65.35H234Zm-49-5.33h43.68v-11H185Z" fill="#13a89e"/><rect x="117.03" y="133.36" width="16.33" height="16.33" fill="#13a89e"/><path d="M136,152.36H114.36V130.69H136ZM119.69,147h11V136h-11Z" fill="#13a89e"/><polygon points="133.36 68.01 133.36 117.02 2.67 117.02 2.67 100.69 35.34 100.69 35.34 84.34 2.67 84.34 2.67 68.01 51.68 68.01 51.68 100.69 117.03 100.69 117.03 84.34 68.01 84.34 68.01 68.01 133.36 68.01" fill="#13a89e"/><path d="M136,119.68H0V98H32.67V87H0V65.35H54.34V98h60V87h-49V65.35H136ZM5.33,114.35H130.69V70.68h-60v11h49v21.67H49V70.68H5.33v11H38v21.67H5.33Z" fill="#13a89e"/></svg>