<svg xmlns="http://www.w3.org/2000/svg" xmlns:xlink="http://www.w3.org/1999/xlink" width="664" height="510.89" viewBox="0 0 664 510.89"><defs><linearGradient id="a" x1="638.84" y1="-224.88" x2="-773.47" y2="434.99" gradientUnits="userSpaceOnUse"><stop offset="0" stop-color="#f2c166"/><stop offset="0.01" stop-color="#f1c065"/><stop offset="0.42" stop-color="#d6a154"/><stop offset="0.76" stop-color="#c58f49"/><stop offset="1" stop-color="#bf8845"/></linearGradient><linearGradient id="b" x1="661.34" y1="-176.73" x2="-750.97" y2="483.14" xlink:href="#a"/><linearGradient id="c" x1="709.35" y1="-73.97" x2="-702.96" y2="585.9" xlink:href="#a"/><linearGradient id="d" x1="785.63" y1="89.3" x2="-626.68" y2="749.17" xlink:href="#a"/><linearGradient id="e" x1="799.35" y1="118.66" x2="-612.96" y2="778.53" xlink:href="#a"/><linearGradient id="f" x1="808.26" y1="137.72" x2="-604.05" y2="797.59" xlink:href="#a"/><linearGradient id="g" x1="794.54" y1="108.36" x2="-617.77" y2="768.23" xlink:href="#a"/><linearGradient id="h" x1="768.07" y1="51.7" x2="-644.24" y2="711.57" xlink:href="#a"/><linearGradient id="i" x1="781.78" y1="81.06" x2="-630.52" y2="740.93" xlink:href="#a"/><linearGradient id="j" x1="795.5" y1="110.42" x2="-616.81" y2="770.29" xlink:href="#a"/><linearGradient id="k" x1="812.1" y1="145.96" x2="-600.2" y2="805.83" xlink:href="#a"/></defs><rect x="76.55" width="51.57" height="51.57" fill="url(#a)"/><polygon points="51.57 76.55 128.12 76.55 128.12 204.68 0 204.68 0 153.11 76.55 153.11 76.55 128.12 0 128.12 0 0 51.57 0 51.57 76.55" fill="url(#b)"/><path d="M510.89,51.57V0H153.11V204.68H510.89V76.55H382.77v76.56H281.23v-25h76.55V76.55H229.66v76.56h-25V51.57Zm-76.55,76.55h25v25h-25Z" fill="url(#c)"/><rect x="76.55" y="382.77" width="51.57" height="51.57" fill="url(#d)"/><rect x="153.11" y="382.77" width="51.57" height="51.57" fill="url(#e)"/><rect x="612.43" width="51.57" height="434.34" fill="url(#f)"/><polygon points="535.88 0 587.45 0 587.45 434.34 229.66 434.34 229.66 229.66 281.23 229.66 281.23 382.77 306.22 382.77 306.22 306.22 357.78 306.22 357.78 382.77 382.77 382.77 382.77 306.22 434.34 306.22 434.34 382.77 459.32 382.77 459.32 306.22 510.89 306.22 510.89 382.77 535.88 382.77 535.88 0" fill="url(#g)"/><rect x="306.22" y="229.66" width="51.57" height="51.57" fill="url(#h)"/><rect x="382.77" y="229.66" width="51.57" height="51.57" fill="url(#i)"/><rect x="459.32" y="229.66" width="51.57" height="51.57" fill="url(#j)"/><polygon points="664 459.32 664 510.89 0 510.89 0 229.66 128.12 229.66 128.12 281.23 51.57 281.23 51.57 306.22 153.11 306.22 153.11 229.66 204.68 229.66 204.68 357.78 51.57 357.78 51.57 459.32 664 459.32" fill="url(#k)"/></svg>