<svg xmlns="http://www.w3.org/2000/svg" width="276.38" height="259" viewBox="0 0 276.38 259"><path d="M89.12,57.16a2.31,2.31,0,0,0-.1.28l0,.08.19-.53,0,.08Z" fill="#f2786d"/><path d="M88.61,59.45s0,.07,0,.1S88.6,59.49,88.61,59.45Z" fill="#f2786d"/><path d="M88.61,59.43c0-.24.14-.76.3-1.68v0c-.14.7-.31,1.4-.46,2.08,0,.22-.07.4-.09.52s-.07.42-.1.62c-.15,1-.27,2.08-.36,3.13a24.42,24.42,0,0,0-.12,4.36,42.23,42.23,0,0,0,.52,5.38,36.65,36.65,0,0,0,3,9.71c4.14,8,11,13.89,18.86,18,16.26,8.57,35.76,10.48,53.85,10.4l2.46,0h.29l2.47-.07h.19A155.1,155.1,0,0,0,225.5,99.41a150.56,150.56,0,0,0,49.66-35.85c1.47-1.61,1.22,1.8,1.18,2.32-.22,3.48-1.51,7-2.54,10.32a103.67,103.67,0,0,1-4.9,12.72,27.89,27.89,0,0,1-4.17,7.13c-2.21,2.42-4.49,4.79-6.86,7.06a151,151,0,0,1-69.73,38,160.22,160.22,0,0,1-33.51,4.17,259.59,259.59,0,0,0-36.73,12.88,264.87,264.87,0,0,0-98.22,75L18.2,235l-.54.7c-.77,1-1.53,2-2.29,3-1.37,1.82-2.72,3.65-4,5.51q-4.58,6.4-8.74,13.08c-.51.82-1.87,2.8-2.4,1-.69-2.3.79-5.87,1.39-8.14,2-7.69,4.88-15.67,9.11-22.43a267.16,267.16,0,0,1,86.55-85.77c2.35-1.43,4.71-2.82,7.1-4.19-9.47-3.83-18.42-9.73-23.82-18.59-8.42-13.85-5.86-30.23-2-45.12A208.86,208.86,0,0,1,88.82,44.38c3.55-8.26,7.39-16.59,12.71-23.9,3.88-5.33,8.37-10.23,14-13.69A46.63,46.63,0,0,1,134.2.49c13.46-1.65,27.47,1.09,40.35,4.91a146.33,146.33,0,0,1,38.34,17.77c1.22.8.09,4.34-.13,5.47a82.76,82.76,0,0,1-3.6,12c-.48,1.36-6.47,17-8.37,15.76A146.25,146.25,0,0,0,155.7,36.8C140.75,33.14,124,31,109.43,37A43,43,0,0,0,94.21,49c-.26.35-.52.69-.77,1-.54.74-1.06,1.48-1.56,2.24-.37.57-.73,1.16-1.1,1.73-.06.1-.11.19-.16.26l-.15.28c-.37.66-.71,1.32-1.06,2l-.22.48,0-.08a1.11,1.11,0,0,1-.07.16s0,0,0,0,0,0,0,0a.87.87,0,0,0-.07.17.17.17,0,0,0,0,.05v.06l0,.1-.06.19c0-.07,0-.15.08-.21" fill="#f2786d"/><path d="M31.69,157.56A259.63,259.63,0,0,0,12,137s-6,14-6.44,15.28C4.23,156,2.92,159.66,1.78,163.4c-.22.72-1.67,4.23-1.11,4.76a259.63,259.63,0,0,1,19.69,20.53c.18.21,2.54-5.14,2.21-4.36,1.53-3.59,2.91-7.26,4.23-10.92s2.64-7.36,3.78-11.09C30.83,161.51,32.25,158.21,31.69,157.56Z" fill="#f2786d"/></svg>