<svg xmlns="http://www.w3.org/2000/svg" width="463.65" height="112.33" viewBox="0 0 463.65 112.33"><path d="M57.29,94.18l8,8c2.67,2.67,5,3.47,8,.44,2.31-2.31,3.7-5.69.52-8.87,2.27.12,4,.63,5.21,1.87,2.43,2.43,2.23,6.84-2.54,11.62-5.22,5.21-10.79,5.61-15.21,1.19L43.45,90.59c1-1,5.13-5.13,8.51-1.75l1.43,1.44" fill="#7a3737"/><ellipse cx="69.26" cy="89.35" rx="7.89" ry="11.44" transform="translate(-42.89 75.15) rotate(-45)" fill="#7a3737"/><path d="M31.07,90.28l1.43-1.44c3.38-3.38,7.48.72,8.52,1.75L23.19,108.42c-4.42,4.42-10,4-15.2-1.19C3.21,102.45,3,98,5.44,95.61c1.23-1.24,2.94-1.75,5.21-1.87-3.18,3.18-1.79,6.56.52,8.87,3,3,5.33,2.23,8-.44l8-8" fill="#7a3737"/><path d="M9.3,99.73,4.73,95.37a2.48,2.48,0,0,1-.08-3.49l.68-.71a2.51,2.51,0,0,1,.58-.45L16.26,79.05l.19.18a2.16,2.16,0,0,1,.19,3.07l-7.8,8.81,1.51,1.44,8.48-8.82a1.39,1.39,0,0,1,2,0,1.4,1.4,0,0,1,0,2l-8.47,8.82,1,1a2.27,2.27,0,0,1,.26.28l8.69-7.22a2.1,2.1,0,0,1,3,.27l.25.29L12.86,99.61l0,0-.05.06A2.48,2.48,0,0,1,9.3,99.73Z" fill="#7a3737"/><path d="M35.21,35.16a8.93,8.93,0,0,1,14,0L79.12,70.43a12.26,12.26,0,0,1,2.51,5,71,71,0,0,0,2.83-20C84.46,24.85,65.56,0,42.23,0S0,24.85,0,55.5a71,71,0,0,0,2.83,20,12.26,12.26,0,0,1,2.51-5Z" fill="#7a3737"/><path d="M117,78.28a9.88,9.88,0,0,0-.88-4.76c-.59-1-1.76-1.55-3.53-1.55H111.3V70.71H117a7.88,7.88,0,0,1,3.63.66,3.63,3.63,0,0,1,1.73,2.18,12,12,0,0,1,8.83-3.47,9.55,9.55,0,0,1,8.39,4.38,19.38,19.38,0,0,1,3,11.07,18.85,18.85,0,0,1-3.06,11.1,10.22,10.22,0,0,1-8.92,4.35,15.74,15.74,0,0,1-4.22-.51,21,21,0,0,1-3.66-1.38v13.24H117ZM134.6,94.92a19.65,19.65,0,0,0,1.92-9.39,20.58,20.58,0,0,0-1.83-9.37,5.82,5.82,0,0,0-5.42-3.56,7.45,7.45,0,0,0-6.62,3.79V96.56c1.26.59,2.35,1.06,3.28,1.39a7.81,7.81,0,0,0,2.71.51A6.34,6.34,0,0,0,134.6,94.92Z" fill="#7a3737"/><path d="M164.9,100.13a8.53,8.53,0,0,1-3.57-2.81,8.39,8.39,0,0,1-1.48-5.17,7,7,0,0,1,4.45-6.81,28.46,28.46,0,0,1,11.63-2h1.89c0-4.12-.56-6.93-1.7-8.45a5.77,5.77,0,0,0-4.92-2.27,7.75,7.75,0,0,0-4.54,1.2A6.74,6.74,0,0,0,164.27,78h-2.84a17.46,17.46,0,0,1,.25-3.37,4.52,4.52,0,0,1,1.33-2.3,7.21,7.21,0,0,1,3.75-1.67,28.16,28.16,0,0,1,5.7-.54q5.11,0,8.07,2.74t3,10.5v17h-3.15l-2.21-2.84h-.32a8.66,8.66,0,0,1-3.34,2.46,13.21,13.21,0,0,1-5.48,1A10.87,10.87,0,0,1,164.9,100.13Zm10.4-3a10,10,0,0,0,2.52-2.77V85.84h-1.89a13.57,13.57,0,0,0-7.38,1.74,5.24,5.24,0,0,0-2.71,4.57,5.65,5.65,0,0,0,1.74,4.45,6.14,6.14,0,0,0,4.25,1.54A5.75,5.75,0,0,0,175.3,97.13Z" fill="#7a3737"/><path d="M217.49,95.93l-7.57-10.09v14.51h-5.68v-34a9.88,9.88,0,0,0-.88-4.76c-.59-1-1.77-1.55-3.53-1.55h-1.26V58.73h5.67a7.92,7.92,0,0,1,3.5.6,3.45,3.45,0,0,1,1.67,2.17,16.77,16.77,0,0,1,.51,4.8V84.9l7.88-10.09a12.35,12.35,0,0,1,3.47-3.06,9.52,9.52,0,0,1,4.73-1h1.89v1.58a8.08,8.08,0,0,0-3.28.69,7.05,7.05,0,0,0-2.71,2.14L215,84,222.84,94a18.49,18.49,0,0,0,3.44,3.6,8,8,0,0,0,3.5,1.51v1.2a7.54,7.54,0,0,1-3.15.63Q221.26,101,217.49,95.93Z" fill="#7a3737"/><path d="M247.75,78.28a9.88,9.88,0,0,0-.88-4.76c-.59-1-1.77-1.55-3.53-1.55h-1.26V70.71h5.67a7.92,7.92,0,0,1,3.5.6,3.48,3.48,0,0,1,1.67,2.17,16.77,16.77,0,0,1,.51,4.8v22.07h-5.68Zm-.09-12.55a4.15,4.15,0,0,1-1-2.84,2.78,2.78,0,0,1,.78-2.08,3,3,0,0,1,2.12-.76,3.21,3.21,0,0,1,2.49,1.2,4.22,4.22,0,0,1,1,2.84,2.73,2.73,0,0,1-.79,2.08,2.91,2.91,0,0,1-2.11.76A3.18,3.18,0,0,1,247.66,65.73Z" fill="#7a3737"/><path d="M277.51,99c-1.34-1.34-2-3.41-2-6.18V73.23h-4.42V70.71h4.42V65l3.15-3.79h2.52v9.46h7.57v2.52h-7.57V92.78c0,3.78,1.47,5.68,4.41,5.68a9,9,0,0,0,2.56-.32,10.55,10.55,0,0,0,2.17-1l.63,1.27a14.91,14.91,0,0,1-3.21,1.79,12.35,12.35,0,0,1-4.67.73A7.5,7.5,0,0,1,277.51,99Z" fill="#7a3737"/><path d="M312.1,98.93a12.6,12.6,0,0,1-4.67-5.55,20.78,20.78,0,0,1,0-15.7,12.6,12.6,0,0,1,4.67-5.55,13.62,13.62,0,0,1,7.66-2q6.93,0,9.14,2.21a4.62,4.62,0,0,1,1.33,2.61,40.56,40.56,0,0,1,.25,5.58h-1.26A7.63,7.63,0,0,0,321,72.6a7.58,7.58,0,0,0-6.84,3.6,17.06,17.06,0,0,0-2.3,9.33,17.06,17.06,0,0,0,2.3,9.33,7.58,7.58,0,0,0,6.84,3.6,10.29,10.29,0,0,0,5.3-1.23,12.42,12.42,0,0,0,3.84-3.82l1.27,1a13.21,13.21,0,0,1-4.92,5.07,13.91,13.91,0,0,1-6.75,1.55A13.62,13.62,0,0,1,312.1,98.93Z" fill="#7a3737"/><path d="M350,66.3a9.87,9.87,0,0,0-.89-4.76c-.58-1-1.76-1.55-3.53-1.55h-1.26V58.73H350a8,8,0,0,1,3.5.6,3.51,3.51,0,0,1,1.67,2.17,17.22,17.22,0,0,1,.5,4.8v6.93A11.08,11.08,0,0,1,359.14,71a12,12,0,0,1,4.76-.91,11.57,11.57,0,0,1,7.72,2.52c2,1.68,3,4.63,3,8.83v18.92h-5.68V81.43c0-2.94-.66-5.1-2-6.46a6.62,6.62,0,0,0-4.95-2q-3.35,0-6.31,3.34v24.09H350Z" fill="#7a3737"/><path d="M399.65,98.93a12.81,12.81,0,0,1-4.48-5.55,21.08,21.08,0,0,1,0-15.67,13,13,0,0,1,4.39-5.58,11.21,11.21,0,0,1,6.71-2q6.38,0,9.49,3.56T418.88,84l-.12,2.52H399.65a15.07,15.07,0,0,0,2.27,8.64,7.17,7.17,0,0,0,6.24,3.35,9.34,9.34,0,0,0,5-1.27A13.23,13.23,0,0,0,417,93.41l1.26,1a13.63,13.63,0,0,1-4.85,5,13,13,0,0,1-6.5,1.58A12.41,12.41,0,0,1,399.65,98.93Zm13.24-15c0-3.7-.54-6.51-1.64-8.45a5.36,5.36,0,0,0-5-2.9,4.77,4.77,0,0,0-3.4,1.48,10,10,0,0,0-2.37,4.07,18.75,18.75,0,0,0-.85,5.8Z" fill="#7a3737"/><path d="M439.06,78.28a9.88,9.88,0,0,0-.88-4.76c-.59-1-1.77-1.55-3.53-1.55h-1.26V70.71h5.67a8.07,8.07,0,0,1,3.57.63,3.87,3.87,0,0,1,1.79,1.89,16.47,16.47,0,0,1,3.75-2.2,11.83,11.83,0,0,1,4.76-1,11.6,11.6,0,0,1,7.73,2.52c2,1.68,3,4.63,3,8.83v18.92H458V81.43c0-2.94-.66-5.1-2-6.46a6.59,6.59,0,0,0-4.95-2q-3.35,0-6.3,3.34v24.09h-5.68Z" fill="#7a3737"/></svg>