<svg xmlns="http://www.w3.org/2000/svg" width="598" height="138.62" viewBox="0 0 598 138.62"><polygon points="598 0 598 138.63 292.33 138.63 292.33 83.52 375.85 83.52 375.85 55.1 292.33 55.1 292.33 0 430.95 0 430.95 83.52 542.9 83.52 542.9 55.1 459.38 55.1 459.38 0 598 0" fill="#f2e2c4"/><polygon points="263.91 0 263.91 55.1 180.39 55.1 180.39 138.63 0 138.63 0 0 96.86 0 96.86 55.1 55.1 55.1 55.1 83.52 125.28 83.52 125.28 0 263.91 0" fill="#f2e2c4"/><rect x="208.81" y="83.52" width="55.1" height="55.1" fill="#f2e2c4"/></svg>